<?xml version="1.0" encoding="UTF-8"?>
<svg id="uuid-c970de7a-259d-4946-a689-a1a3512a8a9a" data-name="Layer 2" xmlns="http://www.w3.org/2000/svg" width="500" height="200" viewBox="0 0 500 200">
  <rect x="28.5" y="12.5" width="443" height="175" rx="21.24" ry="21.24" fill="#fff" stroke="#caf9e2" stroke-miterlimit="10" stroke-width="2"/>
  <text transform="translate(185.59 64.86)" font-family="Ubuntu-Bold, Ubuntu" font-size="30" font-weight="700"><tspan x="0" y="0">Wind</tspan><tspan x="72.9" y="0" letter-spacing="-.01em">o</tspan><tspan x="90.75" y="0" letter-spacing="0em">ws</tspan></text>
  <text transform="translate(128.21 96)" font-family="Ubuntu, Ubuntu" font-size="18"><tspan x="0" y="0">Wind</tspan><tspan x="42.21" y="0" letter-spacing="-.01em">o</tspan><tspan x="52.6" y="0">ws 10 &amp; 11.e</tspan><tspan x="154.17" y="0" letter-spacing="-.02em">x</tspan><tspan x="162.99" y="0">e installer</tspan></text>
  <g>
    <g>
      <rect x="117.31" y="122.79" width="265.38" height="39" rx="8.87" ry="8.87" fill="#caf9e2"/>
      <path d="M373.82,162.36H126.18c-5.21,0-9.44-4.24-9.44-9.44v-21.25c0-5.21,4.24-9.44,9.44-9.44h247.63c5.21,0,9.44,4.24,9.44,9.44v21.25c0,5.21-4.24,9.44-9.44,9.44ZM126.18,123.36c-4.58,0-8.31,3.73-8.31,8.31v21.25c0,4.58,3.73,8.31,8.31,8.31h247.63c4.58,0,8.31-3.73,8.31-8.31v-21.25c0-4.58-3.73-8.31-8.31-8.31H126.18Z" fill="#36775f"/>
    </g>
    <g>
      <path d="M155.63,141.77c0,1.2-.19,2.24-.56,3.13-.37.89-.9,1.63-1.59,2.22-.69.59-1.51,1.03-2.48,1.32s-2.04.43-3.21.43c-.56,0-1.19-.02-1.9-.07-.71-.05-1.38-.14-2.02-.29v-13.46c.64-.15,1.32-.24,2.04-.28s1.36-.06,1.92-.06c1.16,0,2.22.14,3.18.41s1.78.7,2.47,1.28c.69.58,1.22,1.31,1.59,2.2.37.89.56,1.94.56,3.17ZM146.39,146.63c.15.01.34.02.58.03.24,0,.57,0,.98,0,1.69,0,2.96-.43,3.79-1.29.83-.86,1.25-2.06,1.25-3.61s-.41-2.78-1.22-3.62c-.81-.84-2.07-1.26-3.78-1.26-.75,0-1.28.02-1.6.06v9.68Z" fill="#36775f"/>
      <path d="M167.73,143.47c0,.83-.12,1.58-.36,2.26s-.58,1.26-1.02,1.74c-.44.48-.97.85-1.59,1.12-.62.27-1.3.4-2.05.4s-1.43-.13-2.04-.4c-.61-.27-1.14-.64-1.58-1.12-.44-.48-.78-1.06-1.03-1.74-.25-.68-.37-1.43-.37-2.26s.12-1.58.37-2.25c.25-.67.59-1.25,1.04-1.73.45-.48.98-.85,1.59-1.11.61-.26,1.29-.39,2.02-.39s1.41.13,2.03.39c.62.26,1.15.63,1.59,1.11.44.48.78,1.06,1.03,1.73.25.67.37,1.42.37,2.25ZM165.25,143.47c0-1.04-.22-1.86-.67-2.47-.45-.61-1.07-.91-1.87-.91s-1.42.3-1.87.91c-.45.61-.67,1.43-.67,2.47s.22,1.89.67,2.5c.45.61,1.07.92,1.87.92s1.42-.31,1.87-.92c.45-.61.67-1.45.67-2.5Z" fill="#36775f"/>
      <path d="M176.26,142.13c-.31,1.17-.64,2.32-.99,3.43-.35,1.11-.7,2.16-1.05,3.15h-1.99c-.27-.61-.55-1.31-.84-2.1-.29-.79-.59-1.63-.88-2.52-.29-.89-.59-1.83-.88-2.82s-.58-1.99-.86-3.02h2.56c.12.56.26,1.16.42,1.81.16.65.33,1.31.5,1.98.17.67.36,1.33.54,1.97.19.64.38,1.23.56,1.76.2-.61.4-1.25.59-1.9.19-.65.38-1.31.55-1.96.17-.65.34-1.29.49-1.91.15-.62.29-1.2.41-1.75h1.86c.12.55.25,1.13.4,1.75.15.62.3,1.26.47,1.91.17.65.35,1.31.54,1.96.19.65.39,1.29.59,1.9.17-.53.35-1.12.54-1.76.19-.64.37-1.3.55-1.97.18-.67.35-1.33.51-1.98.16-.65.3-1.25.42-1.81h2.5c-.28,1.03-.57,2.03-.86,3.02s-.59,1.93-.88,2.82c-.29.89-.59,1.73-.88,2.52s-.58,1.49-.86,2.1h-1.97c-.35-.99-.7-2.04-1.07-3.15s-.7-2.26-1.01-3.43Z" fill="#36775f"/>
      <path d="M185.61,138.59c.47-.13,1.07-.26,1.82-.38.75-.12,1.57-.18,2.48-.18.85,0,1.57.12,2.14.35.57.23,1.03.56,1.37.98s.58.93.72,1.52c.14.59.21,1.24.21,1.95v5.88h-2.42v-5.5c0-.56-.04-1.04-.11-1.43-.07-.39-.19-.71-.36-.96s-.39-.43-.68-.54c-.29-.11-.64-.17-1.05-.17-.31,0-.63.02-.96.06-.33.04-.58.07-.74.1v8.44h-2.42v-10.12Z" fill="#36775f"/>
      <path d="M200.95,148.91c-.72-.01-1.32-.09-1.79-.24s-.85-.36-1.13-.63-.48-.61-.59-1.02-.17-.87-.17-1.39v-12.04l2.42-.4v11.98c0,.29.02.54.07.74.05.2.13.37.25.51.12.14.28.25.49.32s.47.13.79.17l-.34,2Z" fill="#36775f"/>
      <path d="M212.71,143.47c0,.83-.12,1.58-.36,2.26-.24.68-.58,1.26-1.02,1.74-.44.48-.97.85-1.59,1.12-.62.27-1.3.4-2.05.4s-1.43-.13-2.04-.4c-.61-.27-1.14-.64-1.58-1.12-.44-.48-.78-1.06-1.03-1.74s-.37-1.43-.37-2.26.12-1.58.37-2.25c.25-.67.59-1.25,1.04-1.73s.98-.85,1.59-1.11c.61-.26,1.29-.39,2.02-.39s1.41.13,2.03.39c.62.26,1.15.63,1.59,1.11.44.48.78,1.06,1.03,1.73.25.67.37,1.42.37,2.25ZM210.23,143.47c0-1.04-.22-1.86-.67-2.47-.45-.61-1.07-.91-1.87-.91s-1.42.3-1.87.91c-.45.61-.67,1.43-.67,2.47s.22,1.89.67,2.5c.45.61,1.07.92,1.87.92s1.42-.31,1.87-.92c.45-.61.67-1.45.67-2.5Z" fill="#36775f"/>
      <path d="M218.69,137.99c.8,0,1.47.1,2.02.3.55.2.98.48,1.31.84.33.36.56.8.7,1.31s.21,1.08.21,1.69v6.34c-.37.08-.94.18-1.69.29-.75.11-1.6.17-2.55.17-.63,0-1.2-.06-1.72-.18-.52-.12-.96-.31-1.33-.58-.37-.27-.65-.61-.86-1.04-.21-.43-.31-.95-.31-1.58s.12-1.11.35-1.52c.23-.41.55-.75.95-1.01.4-.26.86-.45,1.39-.56.53-.11,1.08-.17,1.65-.17.27,0,.55.02.84.05s.61.09.94.17v-.4c0-.28-.03-.55-.1-.8-.07-.25-.18-.48-.35-.67s-.39-.34-.66-.45c-.27-.11-.62-.16-1.03-.16-.56,0-1.07.04-1.54.12-.47.08-.85.17-1.14.28l-.3-1.96c.31-.11.75-.21,1.34-.32s1.21-.16,1.88-.16ZM218.89,147.01c.75,0,1.31-.04,1.7-.12v-2.68c-.13-.04-.33-.08-.58-.12-.25-.04-.53-.06-.84-.06-.27,0-.54.02-.81.06-.27.04-.52.11-.74.22-.22.11-.4.26-.53.45-.13.19-.2.44-.2.73,0,.57.18.97.54,1.19.36.22.85.33,1.46.33Z" fill="#36775f"/>
      <path d="M234.73,148.39c-.48.15-1.08.28-1.81.4-.73.12-1.49.18-2.29.18s-1.57-.13-2.22-.38c-.65-.25-1.21-.62-1.67-1.09-.46-.47-.81-1.05-1.06-1.72-.25-.67-.37-1.43-.37-2.27s.1-1.58.31-2.25c.21-.67.51-1.25.91-1.73.4-.48.89-.85,1.46-1.11.57-.26,1.23-.39,1.98-.39.51,0,.95.06,1.34.18.39.12.72.25,1,.4v-5.02l2.42-.4v15.2ZM227.79,143.45c0,1.07.25,1.9.76,2.51.51.61,1.21.91,2.1.91.39,0,.72-.02.99-.05.27-.03.5-.07.67-.11v-6c-.21-.15-.5-.28-.85-.41-.35-.13-.73-.19-1.13-.19-.88,0-1.52.3-1.93.9-.41.6-.61,1.41-.61,2.44Z" fill="#36775f"/>
      <path d="M246.73,133.19c.56,0,1.05.05,1.48.15.43.1.75.19.96.27l-.46,2c-.23-.11-.49-.19-.79-.26-.3-.07-.62-.1-.97-.1-.39,0-.71.06-.98.17-.27.11-.48.27-.64.47-.16.2-.27.44-.34.73-.07.29-.1.6-.1.93v.7h3.8v2.02h-3.8v8.44h-2.42v-11.2c0-1.35.35-2.4,1.06-3.17.71-.77,1.77-1.15,3.2-1.15Z" fill="#36775f"/>
      <path d="M259.73,143.47c0,.83-.12,1.58-.36,2.26s-.58,1.26-1.02,1.74c-.44.48-.97.85-1.59,1.12-.62.27-1.3.4-2.05.4s-1.43-.13-2.04-.4c-.61-.27-1.14-.64-1.58-1.12-.44-.48-.78-1.06-1.03-1.74-.25-.68-.37-1.43-.37-2.26s.12-1.58.37-2.25c.25-.67.59-1.25,1.04-1.73.45-.48.98-.85,1.59-1.11.61-.26,1.29-.39,2.02-.39s1.41.13,2.03.39c.62.26,1.15.63,1.59,1.11.44.48.78,1.06,1.03,1.73.25.67.37,1.42.37,2.25ZM257.25,143.47c0-1.04-.22-1.86-.67-2.47-.45-.61-1.07-.91-1.87-.91s-1.42.3-1.87.91c-.45.61-.67,1.43-.67,2.47s.22,1.89.67,2.5c.45.61,1.07.92,1.87.92s1.42-.31,1.87-.92c.45-.61.67-1.45.67-2.5Z" fill="#36775f"/>
      <path d="M268.19,140.43c-.2-.07-.48-.14-.83-.21-.35-.07-.76-.11-1.23-.11-.27,0-.55.03-.85.08s-.51.1-.63.14v8.38h-2.42v-9.96c.47-.17,1.05-.34,1.75-.49s1.48-.23,2.33-.23c.16,0,.35,0,.56.03s.43.05.64.08c.21.03.42.07.62.12.2.05.36.09.48.13l-.42,2.04Z" fill="#36775f"/>
      <path d="M283.95,136.41c.21.72.44,1.47.68,2.25.24.78.49,1.56.75,2.34.26.78.52,1.55.78,2.3.26.75.51,1.46.75,2.13.2-.72.39-1.5.58-2.35.19-.85.37-1.73.56-2.64.19-.91.37-1.84.55-2.79.18-.95.35-1.88.51-2.8h2.6c-.47,2.51-.99,4.92-1.56,7.23-.57,2.31-1.21,4.52-1.92,6.63h-2.43c-1.03-2.69-2.03-5.63-3-8.82-.49,1.61-.99,3.15-1.5,4.6-.51,1.45-1.01,2.86-1.52,4.22h-2.4c-.72-2.11-1.36-4.32-1.93-6.63-.57-2.31-1.08-4.72-1.55-7.23h2.7c.16.91.33,1.83.51,2.78.18.95.37,1.88.56,2.79.19.91.39,1.8.59,2.65.2.85.4,1.64.6,2.36.25-.68.51-1.4.77-2.15.26-.75.52-1.52.77-2.3.25-.78.5-1.56.73-2.33.23-.77.45-1.52.65-2.24h2.16Z" fill="#36775f"/>
      <path d="M296.41,135.19c0,.45-.15.81-.44,1.08-.29.27-.64.4-1.04.4s-.77-.13-1.06-.4c-.29-.27-.44-.63-.44-1.08s.15-.83.44-1.1c.29-.27.65-.4,1.06-.4s.75.13,1.04.4c.29.27.44.63.44,1.1ZM296.15,148.71h-2.42v-10.46h2.42v10.46Z" fill="#36775f"/>
      <path d="M299.23,138.59c.47-.13,1.07-.26,1.82-.38.75-.12,1.57-.18,2.48-.18.85,0,1.57.12,2.14.35.57.23,1.03.56,1.37.98s.58.93.72,1.52c.14.59.21,1.24.21,1.95v5.88h-2.42v-5.5c0-.56-.04-1.04-.11-1.43-.07-.39-.19-.71-.36-.96s-.39-.43-.68-.54c-.29-.11-.64-.17-1.05-.17-.31,0-.63.02-.96.06-.33.04-.58.07-.74.1v8.44h-2.42v-10.12Z" fill="#36775f"/>
      <path d="M319.77,148.39c-.48.15-1.08.28-1.81.4-.73.12-1.49.18-2.29.18s-1.57-.13-2.22-.38c-.65-.25-1.21-.62-1.67-1.09-.46-.47-.81-1.05-1.06-1.72-.25-.67-.37-1.43-.37-2.27s.1-1.58.31-2.25.51-1.25.91-1.73.89-.85,1.46-1.11,1.23-.39,1.98-.39c.51,0,.95.06,1.34.18.39.12.72.25,1,.4v-5.02l2.42-.4v15.2ZM312.83,143.45c0,1.07.25,1.9.76,2.51.51.61,1.21.91,2.1.91.39,0,.72-.02.99-.05.27-.03.5-.07.67-.11v-6c-.21-.15-.5-.28-.85-.41-.35-.13-.73-.19-1.13-.19-.88,0-1.52.3-1.93.9-.41.6-.61,1.41-.61,2.44Z" fill="#36775f"/>
      <path d="M332.31,143.47c0,.83-.12,1.58-.36,2.26-.24.68-.58,1.26-1.02,1.74-.44.48-.97.85-1.59,1.12-.62.27-1.3.4-2.05.4s-1.43-.13-2.04-.4c-.61-.27-1.14-.64-1.58-1.12-.44-.48-.78-1.06-1.03-1.74s-.37-1.43-.37-2.26.12-1.58.37-2.25c.25-.67.59-1.25,1.04-1.73s.98-.85,1.59-1.11c.61-.26,1.29-.39,2.02-.39s1.41.13,2.03.39c.62.26,1.15.63,1.59,1.11.44.48.78,1.06,1.03,1.73.25.67.37,1.42.37,2.25ZM329.83,143.47c0-1.04-.22-1.86-.67-2.47-.45-.61-1.07-.91-1.87-.91s-1.42.3-1.87.91c-.45.61-.67,1.43-.67,2.47s.22,1.89.67,2.5c.45.61,1.07.92,1.87.92s1.42-.31,1.87-.92c.45-.61.67-1.45.67-2.5Z" fill="#36775f"/>
      <path d="M340.84,142.13c-.31,1.17-.64,2.32-.99,3.43s-.7,2.16-1.05,3.15h-1.99c-.27-.61-.55-1.31-.84-2.1s-.59-1.63-.88-2.52c-.29-.89-.59-1.83-.88-2.82-.29-.99-.58-1.99-.86-3.02h2.56c.12.56.26,1.16.42,1.81.16.65.33,1.31.5,1.98.17.67.36,1.33.54,1.97.19.64.38,1.23.56,1.76.2-.61.4-1.25.59-1.9.19-.65.38-1.31.55-1.96.17-.65.34-1.29.49-1.91.15-.62.29-1.2.41-1.75h1.86c.12.55.25,1.13.4,1.75.15.62.3,1.26.47,1.91.17.65.35,1.31.54,1.96.19.65.39,1.29.59,1.9.17-.53.36-1.12.54-1.76.19-.64.37-1.3.55-1.97.18-.67.35-1.33.51-1.98.16-.65.3-1.25.42-1.81h2.5c-.28,1.03-.57,2.03-.86,3.02-.29.99-.59,1.93-.88,2.82-.29.89-.59,1.73-.88,2.52-.29.79-.58,1.49-.86,2.1h-1.97c-.35-.99-.7-2.04-1.07-3.15s-.7-2.26-1.01-3.43Z" fill="#36775f"/>
      <path d="M352.81,146.97c.64,0,1.11-.08,1.4-.23s.44-.42.44-.79c0-.35-.16-.63-.47-.86-.31-.23-.83-.47-1.55-.74-.44-.16-.84-.33-1.21-.51-.37-.18-.68-.39-.95-.63s-.48-.53-.63-.87-.23-.76-.23-1.25c0-.96.35-1.72,1.06-2.27s1.67-.83,2.88-.83c.61,0,1.2.06,1.76.17.56.11.98.22,1.26.33l-.44,1.96c-.27-.12-.61-.23-1.02-.33-.41-.1-.89-.15-1.44-.15-.49,0-.89.08-1.2.25-.31.17-.46.42-.46.77,0,.17.03.33.09.46.06.13.16.26.31.37.15.11.34.23.58.34s.53.23.88.35c.57.21,1.06.42,1.46.63s.73.44.99.7.45.56.57.89c.12.33.18.73.18,1.2,0,1-.37,1.76-1.11,2.27-.74.51-1.8.77-3.17.77-.92,0-1.66-.08-2.22-.23-.56-.15-.95-.28-1.18-.37l.42-2.02c.36.15.79.29,1.29.42s1.07.2,1.71.2Z" fill="#36775f"/>
    </g>
  </g>
</svg>