<?xml version="1.0" encoding="UTF-8"?>
<svg id="uuid-86d935db-b16a-42d1-8b48-01123ddd3bb6" data-name="Layer 2" xmlns="http://www.w3.org/2000/svg" width="500" height="200" viewBox="0 0 500 200">
  <rect x="28.5" y="12.5" width="443" height="175" rx="21.24" ry="21.24" fill="#fff" stroke="#caf9e2" stroke-miterlimit="10" stroke-width="2"/>
  <g>
    <path d="M201.96,46.29c.24.82.5,1.75.79,2.77.29,1.03.6,2.1.93,3.19.33,1.1.66,2.2,1,3.3s.67,2.12.99,3.06c.26-1.02.53-2.13.8-3.33.27-1.2.53-2.44.77-3.72.24-1.28.48-2.55.71-3.83.23-1.27.45-2.49.65-3.67h4.86c-.71,3.48-1.51,7.01-2.43,10.59-.92,3.58-1.91,6.98-2.97,10.2h-4.28c-.7-1.92-1.38-3.93-2.04-6.04-.66-2.11-1.31-4.23-1.95-6.35-.64,2.12-1.28,4.24-1.92,6.35-.64,2.11-1.31,4.12-2.01,6.04h-4.28c-1.07-3.22-2.05-6.62-2.97-10.2-.91-3.58-1.72-7.11-2.42-10.59h5.07c.2,1.18.42,2.41.66,3.67.24,1.27.49,2.55.75,3.83.26,1.28.53,2.52.8,3.72.27,1.2.55,2.31.83,3.33.36-.98.71-2.02,1.05-3.12.34-1.1.67-2.2.99-3.3.32-1.1.62-2.16.89-3.18s.52-1.93.74-2.73h3.99Z"/>
    <path d="M221.02,44.52c0,.82-.27,1.47-.8,1.94-.53.47-1.15.7-1.88.7s-1.34-.23-1.88-.7c-.53-.47-.79-1.11-.79-1.94s.27-1.46.79-1.94c.53-.47,1.16-.71,1.88-.71s1.35.24,1.88.71c.53.47.8,1.12.8,1.94ZM220.6,64.86h-4.47v-15.78h4.47v15.78Z"/>
    <path d="M224.8,49.62c.76-.22,1.74-.42,2.94-.61,1.2-.19,2.46-.29,3.78-.29s2.46.18,3.35.52c.89.35,1.59.85,2.11,1.49s.89,1.4,1.11,2.28c.22.88.33,1.86.33,2.94v8.91h-4.47v-8.37c0-1.44-.19-2.46-.57-3.06-.38-.6-1.09-.9-2.13-.9-.32,0-.66.02-1.02.04-.36.03-.68.07-.96.1v12.18h-4.47v-15.24Z"/>
    <path d="M256.39,64.35c-.4.12-.86.23-1.38.34-.52.11-1.06.21-1.63.29-.57.08-1.15.14-1.74.19-.59.05-1.16.08-1.7.08-1.3,0-2.46-.19-3.48-.57-1.02-.38-1.88-.92-2.58-1.63-.7-.71-1.23-1.57-1.6-2.58-.37-1.01-.55-2.15-.55-3.4s.16-2.44.48-3.47c.32-1.03.78-1.9,1.38-2.62.6-.72,1.33-1.27,2.21-1.65.87-.38,1.86-.57,2.98-.57.62,0,1.17.06,1.67.18.49.12.99.29,1.49.51v-7.14l4.47-.72v22.77ZM246.28,56.85c0,1.38.31,2.49.93,3.33.62.84,1.54,1.26,2.76,1.26.4,0,.77-.02,1.11-.04.34-.03.62-.06.84-.1v-8.13c-.28-.18-.65-.33-1.1-.45-.45-.12-.9-.18-1.37-.18-2.12,0-3.18,1.44-3.18,4.32Z"/>
    <path d="M275.35,56.94c0,1.24-.18,2.38-.54,3.4-.36,1.03-.88,1.91-1.56,2.64-.68.73-1.5,1.29-2.44,1.69-.95.4-2.02.6-3.2.6s-2.21-.2-3.17-.6-1.77-.96-2.45-1.69c-.68-.73-1.21-1.61-1.59-2.64-.38-1.03-.57-2.16-.57-3.4s.19-2.37.58-3.39c.39-1.02.93-1.89,1.62-2.61.69-.72,1.51-1.28,2.46-1.68.95-.4,1.98-.6,3.11-.6s2.18.2,3.13.6c.95.4,1.77.96,2.45,1.68.68.72,1.21,1.59,1.59,2.61.38,1.02.57,2.15.57,3.39ZM270.79,56.94c0-1.38-.28-2.46-.82-3.25-.55-.79-1.34-1.19-2.36-1.19s-1.81.4-2.37,1.19-.84,1.88-.84,3.25.28,2.48.84,3.29c.56.81,1.35,1.21,2.37,1.21s1.8-.41,2.36-1.21c.55-.81.82-1.91.82-3.29Z"/>
    <path d="M288.05,55.8c-.4,1.52-.83,3.03-1.28,4.53-.45,1.5-.93,3.01-1.42,4.53h-3.48c-.36-.84-.75-1.84-1.17-3-.42-1.16-.86-2.42-1.31-3.79-.45-1.37-.91-2.82-1.38-4.35-.47-1.53-.93-3.08-1.37-4.63h4.71c.16.72.34,1.5.53,2.35s.39,1.72.6,2.62c.21.9.43,1.81.66,2.71.23.91.47,1.79.71,2.62.26-.88.51-1.78.76-2.7.25-.92.49-1.82.72-2.71.23-.89.45-1.75.66-2.58.21-.83.39-1.6.55-2.32h3.24c.16.72.34,1.5.54,2.32.2.83.41,1.69.63,2.58.22.89.45,1.8.69,2.71.24.92.49,1.82.75,2.7.24-.84.48-1.71.72-2.62.24-.91.47-1.81.68-2.71.21-.9.41-1.77.6-2.62s.37-1.64.53-2.35h4.65c-.44,1.56-.9,3.1-1.37,4.63-.47,1.53-.93,2.98-1.38,4.35-.45,1.37-.89,2.64-1.32,3.79-.43,1.16-.83,2.16-1.19,3h-3.48c-.5-1.52-.99-3.03-1.47-4.53-.48-1.5-.92-3.01-1.32-4.53Z"/>
    <path d="M306.49,61.65c.82,0,1.4-.08,1.74-.24.34-.16.51-.47.51-.93,0-.36-.22-.68-.66-.95-.44-.27-1.11-.57-2.01-.92-.7-.26-1.33-.53-1.9-.81s-1.05-.62-1.46-1.01c-.4-.39-.71-.85-.93-1.4-.22-.54-.33-1.19-.33-1.95,0-1.48.55-2.65,1.65-3.51,1.1-.86,2.61-1.29,4.53-1.29.96,0,1.88.09,2.76.26s1.58.35,2.1.55l-.78,3.48c-.52-.18-1.09-.34-1.7-.48-.61-.14-1.29-.21-2.05-.21-1.4,0-2.1.39-2.1,1.17,0,.18.03.34.09.48.06.14.18.28.36.41.18.13.42.27.74.42.31.15.71.32,1.18.5.98.36,1.79.72,2.43,1.07.64.35,1.15.73,1.52,1.14.37.41.63.86.78,1.36.15.5.22,1.08.22,1.74,0,1.56-.58,2.73-1.75,3.53-1.17.8-2.83,1.2-4.96,1.2-1.4,0-2.56-.12-3.5-.36-.93-.24-1.58-.44-1.93-.6l.75-3.63c.76.3,1.54.54,2.34.71.8.17,1.59.25,2.37.25Z"/>
  </g>
  <g>
    <path d="M136.58,87.54c-.5,1.61-1.01,3.1-1.53,4.46-.52,1.37-1.03,2.7-1.55,4h-1.75c-.64-1.84-1.2-3.77-1.68-5.81s-.94-4.26-1.36-6.66h1.84c.17.94.34,1.87.52,2.81s.37,1.85.56,2.73c.19.88.38,1.73.58,2.53.19.8.39,1.55.59,2.23.48-1.26.99-2.64,1.53-4.15.54-1.51,1.04-3.06,1.51-4.67h1.51c.47,1.61.98,3.17,1.53,4.67.55,1.51,1.07,2.89,1.55,4.15.19-.67.38-1.41.58-2.21.19-.8.38-1.65.57-2.53.19-.88.37-1.79.55-2.74.18-.94.35-1.88.52-2.82h1.78c-.43,2.4-.89,4.62-1.38,6.66-.49,2.04-1.04,3.98-1.67,5.81h-1.75c-.53-1.3-1.04-2.63-1.55-4-.5-1.37-1.01-2.86-1.51-4.46Z"/>
    <path d="M147.2,84.95c-.3,0-.56-.1-.77-.3-.21-.2-.31-.46-.31-.8s.1-.6.31-.8c.21-.2.46-.3.77-.3s.55.1.76.3c.21.2.32.47.32.8s-.11.6-.32.8c-.21.2-.46.3-.76.3ZM148.04,96h-1.67v-9.36h1.67v9.36Z"/>
    <path d="M150.92,86.91c.38-.1.89-.2,1.53-.31.64-.11,1.37-.16,2.2-.16.74,0,1.36.11,1.85.31.49.21.88.5,1.18.88s.5.83.62,1.36c.12.53.18,1.11.18,1.75v5.26h-1.67v-4.9c0-.58-.04-1.07-.12-1.48-.08-.41-.21-.74-.39-.99s-.42-.44-.72-.55c-.3-.11-.67-.17-1.12-.17-.18,0-.37,0-.56.02-.19.01-.38.03-.55.04s-.33.04-.47.06c-.14.02-.24.04-.3.05v7.9h-1.67v-9.09Z"/>
    <path d="M167.3,82.32l1.67-.29v13.7c-.38.11-.88.22-1.48.32-.6.11-1.29.16-2.07.16-.72,0-1.37-.11-1.94-.34-.58-.23-1.07-.55-1.48-.97-.41-.42-.72-.93-.95-1.54-.22-.61-.33-1.29-.33-2.04s.09-1.38.28-1.98c.19-.6.46-1.12.82-1.55.36-.43.8-.77,1.32-1.01.52-.24,1.12-.36,1.79-.36.54,0,1.02.07,1.43.22s.72.28.93.41v-4.73ZM167.3,88.62c-.2-.17-.5-.33-.88-.49-.38-.16-.8-.23-1.26-.23-.48,0-.89.09-1.23.26s-.62.41-.84.72c-.22.31-.37.67-.47,1.09-.1.42-.14.87-.14,1.35,0,1.09.27,1.94.81,2.53.54.59,1.26.89,2.16.89.46,0,.84-.02,1.14-.06.31-.04.54-.09.71-.13v-5.92Z"/>
    <path d="M180.12,91.32c0,.74-.11,1.42-.32,2.02-.22.6-.52,1.12-.91,1.55-.39.43-.86.77-1.4,1-.54.23-1.13.35-1.76.35s-1.22-.12-1.76-.35c-.54-.23-1-.57-1.39-1-.39-.43-.69-.95-.91-1.55-.22-.6-.32-1.27-.32-2.02s.11-1.4.32-2.01.52-1.12.91-1.56c.39-.43.85-.76,1.39-1,.54-.23,1.13-.35,1.76-.35s1.22.12,1.76.35c.54.23,1,.57,1.4,1,.39.43.69.95.91,1.56.22.61.32,1.28.32,2.01ZM178.37,91.32c0-1.06-.24-1.89-.71-2.51s-1.12-.93-1.93-.93-1.46.31-1.94.93c-.47.62-.71,1.46-.71,2.51s.24,1.89.71,2.51c.47.62,1.12.93,1.94.93s1.46-.31,1.93-.93.71-1.46.71-2.51Z"/>
    <path d="M189.89,96c-.34-.86-.69-1.85-1.07-2.96s-.72-2.27-1.04-3.46c-.31,1.2-.65,2.35-1.03,3.46-.37,1.11-.73,2.1-1.06,2.96h-1.46c-.55-1.24-1.09-2.65-1.62-4.23-.53-1.58-1.03-3.29-1.49-5.13h1.8c.12.56.26,1.18.43,1.84.17.66.34,1.32.53,1.98.19.66.38,1.3.58,1.91.2.61.4,1.15.58,1.6.2-.56.4-1.16.6-1.79.2-.63.39-1.27.57-1.91.18-.64.35-1.27.51-1.89.16-.62.3-1.2.42-1.74h1.39c.11.54.24,1.12.4,1.74.16.62.32,1.25.5,1.89s.37,1.28.57,1.91c.2.63.4,1.23.6,1.79.18-.46.37-.99.57-1.6.2-.61.39-1.25.58-1.91.19-.66.37-1.32.54-1.98.17-.66.31-1.27.43-1.84h1.73c-.47,1.84-.97,3.55-1.49,5.13-.53,1.58-1.07,2.99-1.62,4.23h-1.46Z"/>
    <path d="M198.4,94.79c.68,0,1.19-.09,1.52-.27.33-.18.49-.47.49-.86s-.16-.73-.49-.97c-.32-.24-.86-.51-1.6-.81-.36-.14-.71-.29-1.03-.44-.33-.15-.62-.33-.86-.53-.24-.2-.43-.45-.58-.74-.14-.29-.22-.64-.22-1.06,0-.83.31-1.48.92-1.97.61-.49,1.45-.73,2.5-.73.26,0,.53.02.79.05s.51.07.74.11c.23.04.43.09.6.13.17.05.31.09.41.13l-.31,1.44c-.18-.1-.46-.19-.85-.3-.38-.1-.85-.15-1.39-.15-.47,0-.88.09-1.22.28-.35.19-.52.48-.52.87,0,.2.04.38.12.54.08.16.2.3.36.42.16.13.36.24.6.35s.53.22.86.34c.44.17.84.33,1.19.49.35.16.65.35.89.57.25.22.43.48.57.78.13.31.2.68.2,1.12,0,.86-.32,1.52-.96,1.96-.64.44-1.56.67-2.75.67-.83,0-1.48-.07-1.94-.21-.47-.14-.79-.24-.95-.31l.31-1.44c.19.07.5.18.92.32s.98.22,1.67.22Z"/>
    <path d="M208.65,86.1c.68-.26,1.35-.6,2-1.02.65-.41,1.24-.93,1.78-1.56h1.19v12.47h-1.67v-10.15c-.14.13-.32.27-.53.41-.21.14-.44.28-.68.41-.25.13-.5.26-.77.38-.27.12-.53.22-.78.31l-.52-1.26Z"/>
    <path d="M218.02,89.75c0-2.09.37-3.7,1.11-4.82.74-1.13,1.76-1.69,3.07-1.69s2.33.56,3.07,1.69c.74,1.13,1.11,2.74,1.11,4.82s-.37,3.7-1.11,4.82c-.74,1.13-1.76,1.69-3.07,1.69s-2.33-.56-3.07-1.69c-.74-1.13-1.11-2.74-1.11-4.82ZM224.61,89.75c0-.68-.04-1.33-.12-1.94s-.21-1.15-.4-1.6c-.19-.46-.44-.82-.75-1.09-.31-.27-.7-.41-1.15-.41s-.84.14-1.15.41c-.31.27-.56.63-.75,1.09-.19.46-.32.99-.4,1.6s-.12,1.26-.12,1.94.04,1.33.12,1.94c.08.61.21,1.15.4,1.6.19.46.44.82.75,1.09.31.27.7.4,1.15.4s.84-.13,1.15-.4c.31-.27.56-.63.75-1.09.19-.46.32-.99.4-1.6.08-.61.12-1.26.12-1.94Z"/>
    <path d="M232.26,92.69c0-.47.07-.88.22-1.25.14-.37.34-.7.58-.99.25-.29.53-.55.86-.77.32-.22.66-.42,1.01-.58-.89-.89-1.33-1.81-1.33-2.75,0-.48.08-.91.24-1.3.16-.38.38-.71.67-.97.28-.26.62-.47,1.01-.61s.82-.22,1.29-.22.91.07,1.29.22.7.34.95.58c.26.24.45.53.58.86.13.34.2.69.2,1.06,0,.42-.07.8-.21,1.13-.14.34-.32.64-.56.92-.23.28-.5.53-.8.76s-.62.43-.95.61l2.92,2.97c.41-.76.67-1.6.79-2.52l1.39.18c-.05.49-.17,1.03-.37,1.61-.2.58-.48,1.16-.84,1.74.42.46.81.91,1.16,1.35.35.44.65.88.87,1.3h-1.76c-.14-.24-.32-.49-.53-.74-.21-.25-.43-.5-.66-.76-.49.49-1.06.89-1.71,1.2-.65.31-1.39.46-2.23.46-.78,0-1.43-.11-1.94-.33-.52-.22-.93-.5-1.25-.85-.32-.34-.54-.72-.67-1.12-.13-.41-.2-.8-.2-1.17ZM233.94,92.65c0,.22.04.45.13.7s.22.48.41.69c.19.21.44.38.75.52.31.14.69.21,1.14.21.59,0,1.13-.11,1.63-.32.5-.22.94-.52,1.32-.92l-3.51-3.55c-.22.11-.43.23-.66.38-.22.14-.42.32-.6.53s-.33.46-.44.75-.17.62-.17,1.01ZM238.31,86.01c0-.41-.13-.75-.4-1.03-.27-.28-.64-.42-1.11-.42-.53,0-.93.16-1.21.48-.28.32-.42.71-.42,1.18,0,.78.41,1.54,1.22,2.29.26-.13.51-.28.75-.43.23-.16.44-.34.61-.54.17-.2.31-.43.41-.67.1-.25.15-.52.15-.84Z"/>
    <path d="M249.25,86.1c.68-.26,1.35-.6,2-1.02.65-.41,1.24-.93,1.78-1.56h1.19v12.47h-1.67v-10.15c-.14.13-.32.27-.53.41-.21.14-.44.28-.68.41-.25.13-.5.26-.77.38-.27.12-.53.22-.78.31l-.52-1.26Z"/>
    <path d="M259.41,86.1c.68-.26,1.35-.6,2-1.02.65-.41,1.24-.93,1.78-1.56h1.19v12.47h-1.67v-10.15c-.14.13-.32.27-.53.41-.21.14-.44.28-.68.41-.25.13-.5.26-.77.38-.27.12-.53.22-.78.31l-.52-1.26Z"/>
    <path d="M271.3,95.03c0,.32-.11.61-.32.85-.22.24-.51.36-.88.36s-.67-.12-.88-.36-.32-.52-.32-.85.11-.61.32-.85.51-.36.88-.36.67.12.88.36c.22.24.32.52.32.85Z"/>
    <path d="M273.23,91.34c0-.83.12-1.55.36-2.17.24-.62.56-1.13.95-1.54.4-.41.85-.71,1.37-.92.52-.2,1.04-.31,1.58-.31,1.26,0,2.23.39,2.9,1.18.67.79,1.01,1.98,1.01,3.59v.28c0,.11,0,.22-.02.31h-6.41c.07.97.35,1.71.85,2.21s1.26.76,2.3.76c.59,0,1.08-.05,1.49-.15.4-.1.71-.2.91-.3l.23,1.4c-.2.11-.56.22-1.07.34-.51.12-1.09.18-1.74.18-.82,0-1.52-.12-2.12-.37-.59-.25-1.08-.58-1.47-1.02s-.67-.95-.86-1.54c-.19-.59-.28-1.24-.28-1.95ZM279.66,90.42c.01-.76-.18-1.38-.57-1.86-.39-.49-.93-.73-1.61-.73-.38,0-.72.08-1.02.23s-.54.34-.75.58-.36.52-.48.83c-.11.31-.19.63-.22.95h4.64Z"/>
    <path d="M289.41,96c-.13-.26-.29-.56-.49-.88-.19-.32-.4-.66-.63-1-.23-.34-.46-.68-.7-1.02s-.47-.65-.7-.95c-.23.3-.46.62-.7.96-.24.34-.47.68-.69,1.03-.22.34-.43.67-.62,1-.19.32-.35.61-.49.86h-1.73c.42-.82.92-1.65,1.5-2.49.58-.85,1.16-1.65,1.74-2.42l-3.1-4.45h1.89l2.23,3.28,2.25-3.28h1.78l-3.02,4.34c.58.78,1.17,1.6,1.77,2.48.61.87,1.12,1.72,1.54,2.55h-1.84Z"/>
    <path d="M292.11,91.34c0-.83.12-1.55.36-2.17.24-.62.56-1.13.95-1.54.4-.41.85-.71,1.37-.92.52-.2,1.04-.31,1.58-.31,1.26,0,2.23.39,2.9,1.18.67.79,1.01,1.98,1.01,3.59v.28c0,.11,0,.22-.02.31h-6.41c.07.97.35,1.71.85,2.21s1.26.76,2.3.76c.59,0,1.08-.05,1.48-.15.4-.1.71-.2.91-.3l.23,1.4c-.2.11-.56.22-1.07.34-.51.12-1.09.18-1.74.18-.82,0-1.52-.12-2.11-.37-.59-.25-1.08-.58-1.47-1.02-.38-.43-.67-.95-.85-1.54-.19-.59-.28-1.24-.28-1.95ZM298.54,90.42c.01-.76-.18-1.38-.57-1.86-.39-.49-.93-.73-1.61-.73-.38,0-.72.08-1.02.23s-.54.34-.75.58-.36.52-.48.83c-.11.31-.19.63-.22.95h4.64Z"/>
    <path d="M307.68,84.95c-.3,0-.56-.1-.77-.3-.21-.2-.31-.46-.31-.8s.1-.6.31-.8c.21-.2.46-.3.77-.3s.55.1.76.3c.21.2.32.47.32.8s-.11.6-.32.8c-.21.2-.46.3-.76.3ZM308.53,96h-1.67v-9.36h1.67v9.36Z"/>
    <path d="M311.41,86.91c.38-.1.89-.2,1.53-.31.64-.11,1.37-.16,2.2-.16.74,0,1.36.11,1.85.31.49.21.88.5,1.18.88s.5.83.62,1.36c.12.53.18,1.11.18,1.75v5.26h-1.67v-4.9c0-.58-.04-1.07-.12-1.48-.08-.41-.21-.74-.39-.99s-.42-.44-.72-.55c-.3-.11-.67-.17-1.12-.17-.18,0-.37,0-.56.02-.19.01-.38.03-.55.04s-.33.04-.47.06c-.14.02-.24.04-.3.05v7.9h-1.67v-9.09Z"/>
    <path d="M323.92,94.79c.68,0,1.19-.09,1.52-.27.33-.18.49-.47.49-.86s-.16-.73-.49-.97c-.32-.24-.86-.51-1.6-.81-.36-.14-.71-.29-1.03-.44-.33-.15-.62-.33-.86-.53-.24-.2-.43-.45-.58-.74-.14-.29-.22-.64-.22-1.06,0-.83.31-1.48.92-1.97.61-.49,1.45-.73,2.5-.73.26,0,.53.02.79.05s.51.07.74.11c.23.04.43.09.6.13.17.05.31.09.41.13l-.31,1.44c-.18-.1-.46-.19-.85-.3-.38-.1-.85-.15-1.39-.15-.47,0-.88.09-1.22.28-.35.19-.52.48-.52.87,0,.2.04.38.12.54.08.16.2.3.36.42.16.13.36.24.6.35s.53.22.86.34c.44.17.84.33,1.19.49.35.16.65.35.89.57.25.22.43.48.57.78.13.31.2.68.2,1.12,0,.86-.32,1.52-.96,1.96-.64.44-1.56.67-2.75.67-.83,0-1.48-.07-1.94-.21-.47-.14-.79-.24-.95-.31l.31-1.44c.19.07.5.18.92.32s.98.22,1.67.22Z"/>
    <path d="M331.33,86.64h3.55v1.4h-3.55v4.32c0,.47.04.86.11,1.16.07.31.18.55.32.72.14.17.32.3.54.37.22.07.47.11.76.11.5,0,.91-.06,1.22-.17.31-.11.52-.19.64-.24l.32,1.39c-.17.08-.46.19-.88.31s-.9.19-1.44.19c-.64,0-1.16-.08-1.58-.24s-.75-.41-1-.73c-.25-.32-.43-.72-.53-1.2-.1-.47-.15-1.02-.15-1.65v-8.35l1.67-.29v2.9Z"/>
    <path d="M340.03,86.41c.67,0,1.24.09,1.7.26.46.17.83.42,1.12.74.28.32.48.7.6,1.13s.18.92.18,1.45v5.85c-.14.02-.35.06-.6.1s-.55.08-.87.12c-.32.04-.67.07-1.05.1s-.75.05-1.12.05c-.53,0-1.01-.05-1.46-.16s-.83-.28-1.15-.51c-.32-.23-.58-.54-.76-.93-.18-.38-.27-.85-.27-1.39s.1-.96.31-1.33c.21-.37.5-.67.86-.9s.78-.4,1.26-.5.98-.16,1.51-.16c.17,0,.34,0,.52.03s.35.04.51.07.3.06.42.08.2.04.25.05v-.47c0-.28-.03-.55-.09-.82-.06-.27-.17-.51-.32-.72-.16-.21-.37-.38-.64-.5-.27-.13-.62-.19-1.05-.19-.55,0-1.04.04-1.45.12-.41.08-.72.16-.93.24l-.2-1.39c.22-.1.58-.19,1.08-.28s1.05-.14,1.64-.14ZM340.17,94.79c.4,0,.75,0,1.05-.03s.56-.05.76-.1v-2.79c-.12-.06-.31-.11-.58-.15-.27-.04-.6-.06-.98-.06-.25,0-.52.02-.8.05-.28.04-.54.11-.77.23-.23.11-.43.27-.58.47-.16.2-.23.46-.23.78,0,.6.19,1.02.58,1.25s.91.35,1.57.35Z"/>
    <path d="M349.21,96.18c-1.03-.02-1.76-.25-2.2-.67s-.65-1.07-.65-1.96v-11.23l1.67-.29v11.25c0,.28.02.5.07.68.05.18.13.32.23.43s.25.19.43.24c.18.05.4.1.67.13l-.23,1.4Z"/>
    <path d="M354.12,96.18c-1.03-.02-1.76-.25-2.2-.67-.43-.42-.65-1.07-.65-1.96v-11.23l1.67-.29v11.25c0,.28.02.5.07.68.05.18.13.32.23.43.11.11.25.19.43.24.18.05.4.1.67.13l-.23,1.4Z"/>
    <path d="M355.7,91.34c0-.83.12-1.55.36-2.17.24-.62.56-1.13.95-1.54.4-.41.85-.71,1.37-.92.52-.2,1.04-.31,1.58-.31,1.26,0,2.23.39,2.9,1.18.67.79,1.01,1.98,1.01,3.59v.28c0,.11,0,.22-.02.31h-6.41c.07.97.35,1.71.85,2.21s1.26.76,2.3.76c.59,0,1.08-.05,1.48-.15.4-.1.71-.2.91-.3l.23,1.4c-.2.11-.56.22-1.07.34-.51.12-1.09.18-1.74.18-.82,0-1.52-.12-2.11-.37-.59-.25-1.08-.58-1.47-1.02-.38-.43-.67-.95-.85-1.54-.19-.59-.28-1.24-.28-1.95ZM362.13,90.42c.01-.76-.18-1.38-.57-1.86-.39-.49-.93-.73-1.61-.73-.38,0-.72.08-1.02.23s-.54.34-.75.58-.36.52-.48.83c-.11.31-.19.63-.22.95h4.64Z"/>
    <path d="M369.74,86.44c.14,0,.31,0,.5.03.19.02.37.04.55.07.18.03.34.06.5.09.15.03.26.06.33.08l-.29,1.46c-.13-.05-.35-.1-.66-.17-.31-.07-.7-.1-1.18-.1-.31,0-.62.03-.93.1s-.51.11-.6.13v7.87h-1.67v-8.96c.4-.14.89-.28,1.48-.41s1.25-.19,1.98-.19Z"/>
  </g>
  <g>
    <g>
      <rect x="117.31" y="122.79" width="265.38" height="39" rx="8.87" ry="8.87" fill="#caf9e2"/>
      <path d="M373.82,162.36H126.18c-5.21,0-9.44-4.24-9.44-9.44v-21.25c0-5.21,4.24-9.44,9.44-9.44h247.63c5.21,0,9.44,4.24,9.44,9.44v21.25c0,5.21-4.24,9.44-9.44,9.44ZM126.18,123.36c-4.58,0-8.31,3.73-8.31,8.31v21.25c0,4.58,3.73,8.31,8.31,8.31h247.63c4.58,0,8.31-3.73,8.31-8.31v-21.25c0-4.58-3.73-8.31-8.31-8.31H126.18Z" fill="#36775f"/>
    </g>
    <g>
      <path d="M155.63,141.77c0,1.2-.19,2.24-.56,3.13-.37.89-.9,1.63-1.59,2.22-.69.59-1.51,1.03-2.48,1.32s-2.04.43-3.21.43c-.56,0-1.19-.02-1.9-.07-.71-.05-1.38-.14-2.02-.29v-13.46c.64-.15,1.32-.24,2.04-.28s1.36-.06,1.92-.06c1.16,0,2.22.14,3.18.41s1.78.7,2.47,1.28c.69.58,1.22,1.31,1.59,2.2.37.89.56,1.94.56,3.17ZM146.39,146.63c.15.01.34.02.58.03.24,0,.57,0,.98,0,1.69,0,2.96-.43,3.79-1.29.83-.86,1.25-2.06,1.25-3.61s-.41-2.78-1.22-3.62c-.81-.84-2.07-1.26-3.78-1.26-.75,0-1.28.02-1.6.06v9.68Z" fill="#36775f"/>
      <path d="M167.73,143.47c0,.83-.12,1.58-.36,2.26s-.58,1.26-1.02,1.74c-.44.48-.97.85-1.59,1.12-.62.27-1.3.4-2.05.4s-1.43-.13-2.04-.4c-.61-.27-1.14-.64-1.58-1.12-.44-.48-.78-1.06-1.03-1.74-.25-.68-.37-1.43-.37-2.26s.12-1.58.37-2.25c.25-.67.59-1.25,1.04-1.73.45-.48.98-.85,1.59-1.11.61-.26,1.29-.39,2.02-.39s1.41.13,2.03.39c.62.26,1.15.63,1.59,1.11.44.48.78,1.06,1.03,1.73.25.67.37,1.42.37,2.25ZM165.25,143.47c0-1.04-.22-1.86-.67-2.47-.45-.61-1.07-.91-1.87-.91s-1.42.3-1.87.91c-.45.61-.67,1.43-.67,2.47s.22,1.89.67,2.5c.45.61,1.07.92,1.87.92s1.42-.31,1.87-.92c.45-.61.67-1.45.67-2.5Z" fill="#36775f"/>
      <path d="M176.26,142.13c-.31,1.17-.64,2.32-.99,3.43-.35,1.11-.7,2.16-1.05,3.15h-1.99c-.27-.61-.55-1.31-.84-2.1-.29-.79-.59-1.63-.88-2.52-.29-.89-.59-1.83-.88-2.82s-.58-1.99-.86-3.02h2.56c.12.56.26,1.16.42,1.81.16.65.33,1.31.5,1.98.17.67.36,1.33.54,1.97.19.64.38,1.23.56,1.76.2-.61.4-1.25.59-1.9.19-.65.38-1.31.55-1.96.17-.65.34-1.29.49-1.91.15-.62.29-1.2.41-1.75h1.86c.12.55.25,1.13.4,1.75.15.62.3,1.26.47,1.91.17.65.35,1.31.54,1.96.19.65.39,1.29.59,1.9.17-.53.35-1.12.54-1.76.19-.64.37-1.3.55-1.97.18-.67.35-1.33.51-1.98.16-.65.3-1.25.42-1.81h2.5c-.28,1.03-.57,2.03-.86,3.02s-.59,1.93-.88,2.82c-.29.89-.59,1.73-.88,2.52s-.58,1.49-.86,2.1h-1.97c-.35-.99-.7-2.04-1.07-3.15s-.7-2.26-1.01-3.43Z" fill="#36775f"/>
      <path d="M185.61,138.59c.47-.13,1.07-.26,1.82-.38.75-.12,1.57-.18,2.48-.18.85,0,1.57.12,2.14.35.57.23,1.03.56,1.37.98s.58.93.72,1.52c.14.59.21,1.24.21,1.95v5.88h-2.42v-5.5c0-.56-.04-1.04-.11-1.43-.07-.39-.19-.71-.36-.96s-.39-.43-.68-.54c-.29-.11-.64-.17-1.05-.17-.31,0-.63.02-.96.06-.33.04-.58.07-.74.1v8.44h-2.42v-10.12Z" fill="#36775f"/>
      <path d="M200.95,148.91c-.72-.01-1.32-.09-1.79-.24s-.85-.36-1.13-.63-.48-.61-.59-1.02-.17-.87-.17-1.39v-12.04l2.42-.4v11.98c0,.29.02.54.07.74.05.2.13.37.25.51.12.14.28.25.49.32s.47.13.79.17l-.34,2Z" fill="#36775f"/>
      <path d="M212.71,143.47c0,.83-.12,1.58-.36,2.26-.24.68-.58,1.26-1.02,1.74-.44.48-.97.85-1.59,1.12-.62.27-1.3.4-2.05.4s-1.43-.13-2.04-.4c-.61-.27-1.14-.64-1.58-1.12-.44-.48-.78-1.06-1.03-1.74s-.37-1.43-.37-2.26.12-1.58.37-2.25c.25-.67.59-1.25,1.04-1.73s.98-.85,1.59-1.11c.61-.26,1.29-.39,2.02-.39s1.41.13,2.03.39c.62.26,1.15.63,1.59,1.11.44.48.78,1.06,1.03,1.73.25.67.37,1.42.37,2.25ZM210.23,143.47c0-1.04-.22-1.86-.67-2.47-.45-.61-1.07-.91-1.87-.91s-1.42.3-1.87.91c-.45.61-.67,1.43-.67,2.47s.22,1.89.67,2.5c.45.61,1.07.92,1.87.92s1.42-.31,1.87-.92c.45-.61.67-1.45.67-2.5Z" fill="#36775f"/>
      <path d="M218.69,137.99c.8,0,1.47.1,2.02.3.55.2.98.48,1.31.84.33.36.56.8.7,1.31s.21,1.08.21,1.69v6.34c-.37.08-.94.18-1.69.29-.75.11-1.6.17-2.55.17-.63,0-1.2-.06-1.72-.18-.52-.12-.96-.31-1.33-.58-.37-.27-.65-.61-.86-1.04-.21-.43-.31-.95-.31-1.58s.12-1.11.35-1.52c.23-.41.55-.75.95-1.01.4-.26.86-.45,1.39-.56.53-.11,1.08-.17,1.65-.17.27,0,.55.02.84.05s.61.09.94.17v-.4c0-.28-.03-.55-.1-.8-.07-.25-.18-.48-.35-.67s-.39-.34-.66-.45c-.27-.11-.62-.16-1.03-.16-.56,0-1.07.04-1.54.12-.47.08-.85.17-1.14.28l-.3-1.96c.31-.11.75-.21,1.34-.32s1.21-.16,1.88-.16ZM218.89,147.01c.75,0,1.31-.04,1.7-.12v-2.68c-.13-.04-.33-.08-.58-.12-.25-.04-.53-.06-.84-.06-.27,0-.54.02-.81.06-.27.04-.52.11-.74.22-.22.11-.4.26-.53.45-.13.19-.2.44-.2.73,0,.57.18.97.54,1.19.36.22.85.33,1.46.33Z" fill="#36775f"/>
      <path d="M234.73,148.39c-.48.15-1.08.28-1.81.4-.73.12-1.49.18-2.29.18s-1.57-.13-2.22-.38c-.65-.25-1.21-.62-1.67-1.09-.46-.47-.81-1.05-1.06-1.72-.25-.67-.37-1.43-.37-2.27s.1-1.58.31-2.25c.21-.67.51-1.25.91-1.73.4-.48.89-.85,1.46-1.11.57-.26,1.23-.39,1.98-.39.51,0,.95.06,1.34.18.39.12.72.25,1,.4v-5.02l2.42-.4v15.2ZM227.79,143.45c0,1.07.25,1.9.76,2.51.51.61,1.21.91,2.1.91.39,0,.72-.02.99-.05.27-.03.5-.07.67-.11v-6c-.21-.15-.5-.28-.85-.41-.35-.13-.73-.19-1.13-.19-.88,0-1.52.3-1.93.9-.41.6-.61,1.41-.61,2.44Z" fill="#36775f"/>
      <path d="M246.73,133.19c.56,0,1.05.05,1.48.15.43.1.75.19.96.27l-.46,2c-.23-.11-.49-.19-.79-.26-.3-.07-.62-.1-.97-.1-.39,0-.71.06-.98.17-.27.11-.48.27-.64.47-.16.2-.27.44-.34.73-.07.29-.1.6-.1.93v.7h3.8v2.02h-3.8v8.44h-2.42v-11.2c0-1.35.35-2.4,1.06-3.17.71-.77,1.77-1.15,3.2-1.15Z" fill="#36775f"/>
      <path d="M259.73,143.47c0,.83-.12,1.58-.36,2.26s-.58,1.26-1.02,1.74c-.44.48-.97.85-1.59,1.12-.62.27-1.3.4-2.05.4s-1.43-.13-2.04-.4c-.61-.27-1.14-.64-1.58-1.12-.44-.48-.78-1.06-1.03-1.74-.25-.68-.37-1.43-.37-2.26s.12-1.58.37-2.25c.25-.67.59-1.25,1.04-1.73.45-.48.98-.85,1.59-1.11.61-.26,1.29-.39,2.02-.39s1.41.13,2.03.39c.62.26,1.15.63,1.59,1.11.44.48.78,1.06,1.03,1.73.25.67.37,1.42.37,2.25ZM257.25,143.47c0-1.04-.22-1.86-.67-2.47-.45-.61-1.07-.91-1.87-.91s-1.42.3-1.87.91c-.45.61-.67,1.43-.67,2.47s.22,1.89.67,2.5c.45.61,1.07.92,1.87.92s1.42-.31,1.87-.92c.45-.61.67-1.45.67-2.5Z" fill="#36775f"/>
      <path d="M268.19,140.43c-.2-.07-.48-.14-.83-.21-.35-.07-.76-.11-1.23-.11-.27,0-.55.03-.85.08s-.51.1-.63.14v8.38h-2.42v-9.96c.47-.17,1.05-.34,1.75-.49s1.48-.23,2.33-.23c.16,0,.35,0,.56.03s.43.05.64.08c.21.03.42.07.62.12.2.05.36.09.48.13l-.42,2.04Z" fill="#36775f"/>
      <path d="M283.95,136.41c.21.72.44,1.47.68,2.25.24.78.49,1.56.75,2.34.26.78.52,1.55.78,2.3.26.75.51,1.46.75,2.13.2-.72.39-1.5.58-2.35.19-.85.37-1.73.56-2.64.19-.91.37-1.84.55-2.79.18-.95.35-1.88.51-2.8h2.6c-.47,2.51-.99,4.92-1.56,7.23-.57,2.31-1.21,4.52-1.92,6.63h-2.43c-1.03-2.69-2.03-5.63-3-8.82-.49,1.61-.99,3.15-1.5,4.6-.51,1.45-1.01,2.86-1.52,4.22h-2.4c-.72-2.11-1.36-4.32-1.93-6.63-.57-2.31-1.08-4.72-1.55-7.23h2.7c.16.91.33,1.83.51,2.78.18.95.37,1.88.56,2.79.19.91.39,1.8.59,2.65.2.85.4,1.64.6,2.36.25-.68.51-1.4.77-2.15.26-.75.52-1.52.77-2.3.25-.78.5-1.56.73-2.33.23-.77.45-1.52.65-2.24h2.16Z" fill="#36775f"/>
      <path d="M296.41,135.19c0,.45-.15.81-.44,1.08-.29.27-.64.4-1.04.4s-.77-.13-1.06-.4c-.29-.27-.44-.63-.44-1.08s.15-.83.44-1.1c.29-.27.65-.4,1.06-.4s.75.13,1.04.4c.29.27.44.63.44,1.1ZM296.15,148.71h-2.42v-10.46h2.42v10.46Z" fill="#36775f"/>
      <path d="M299.23,138.59c.47-.13,1.07-.26,1.82-.38.75-.12,1.57-.18,2.48-.18.85,0,1.57.12,2.14.35.57.23,1.03.56,1.37.98s.58.93.72,1.52c.14.59.21,1.24.21,1.95v5.88h-2.42v-5.5c0-.56-.04-1.04-.11-1.43-.07-.39-.19-.71-.36-.96s-.39-.43-.68-.54c-.29-.11-.64-.17-1.05-.17-.31,0-.63.02-.96.06-.33.04-.58.07-.74.1v8.44h-2.42v-10.12Z" fill="#36775f"/>
      <path d="M319.77,148.39c-.48.15-1.08.28-1.81.4-.73.12-1.49.18-2.29.18s-1.57-.13-2.22-.38c-.65-.25-1.21-.62-1.67-1.09-.46-.47-.81-1.05-1.06-1.72-.25-.67-.37-1.43-.37-2.27s.1-1.58.31-2.25.51-1.25.91-1.73.89-.85,1.46-1.11,1.23-.39,1.98-.39c.51,0,.95.06,1.34.18.39.12.72.25,1,.4v-5.02l2.42-.4v15.2ZM312.83,143.45c0,1.07.25,1.9.76,2.51.51.61,1.21.91,2.1.91.39,0,.72-.02.99-.05.27-.03.5-.07.67-.11v-6c-.21-.15-.5-.28-.85-.41-.35-.13-.73-.19-1.13-.19-.88,0-1.52.3-1.93.9-.41.6-.61,1.41-.61,2.44Z" fill="#36775f"/>
      <path d="M332.31,143.47c0,.83-.12,1.58-.36,2.26-.24.68-.58,1.26-1.02,1.74-.44.48-.97.85-1.59,1.12-.62.27-1.3.4-2.05.4s-1.43-.13-2.04-.4c-.61-.27-1.14-.64-1.58-1.12-.44-.48-.78-1.06-1.03-1.74s-.37-1.43-.37-2.26.12-1.58.37-2.25c.25-.67.59-1.25,1.04-1.73s.98-.85,1.59-1.11c.61-.26,1.29-.39,2.02-.39s1.41.13,2.03.39c.62.26,1.15.63,1.59,1.11.44.48.78,1.06,1.03,1.73.25.67.37,1.42.37,2.25ZM329.83,143.47c0-1.04-.22-1.86-.67-2.47-.45-.61-1.07-.91-1.87-.91s-1.42.3-1.87.91c-.45.61-.67,1.43-.67,2.47s.22,1.89.67,2.5c.45.61,1.07.92,1.87.92s1.42-.31,1.87-.92c.45-.61.67-1.45.67-2.5Z" fill="#36775f"/>
      <path d="M340.84,142.13c-.31,1.17-.64,2.32-.99,3.43s-.7,2.16-1.05,3.15h-1.99c-.27-.61-.55-1.31-.84-2.1s-.59-1.63-.88-2.52c-.29-.89-.59-1.83-.88-2.82-.29-.99-.58-1.99-.86-3.02h2.56c.12.56.26,1.16.42,1.81.16.65.33,1.31.5,1.98.17.67.36,1.33.54,1.97.19.64.38,1.23.56,1.76.2-.61.4-1.25.59-1.9.19-.65.38-1.31.55-1.96.17-.65.34-1.29.49-1.91.15-.62.29-1.2.41-1.75h1.86c.12.55.25,1.13.4,1.75.15.62.3,1.26.47,1.91.17.65.35,1.31.54,1.96.19.65.39,1.29.59,1.9.17-.53.36-1.12.54-1.76.19-.64.37-1.3.55-1.97.18-.67.35-1.33.51-1.98.16-.65.3-1.25.42-1.81h2.5c-.28,1.03-.57,2.03-.86,3.02-.29.99-.59,1.93-.88,2.82-.29.89-.59,1.73-.88,2.52-.29.79-.58,1.49-.86,2.1h-1.97c-.35-.99-.7-2.04-1.07-3.15s-.7-2.26-1.01-3.43Z" fill="#36775f"/>
      <path d="M352.81,146.97c.64,0,1.11-.08,1.4-.23s.44-.42.44-.79c0-.35-.16-.63-.47-.86-.31-.23-.83-.47-1.55-.74-.44-.16-.84-.33-1.21-.51-.37-.18-.68-.39-.95-.63s-.48-.53-.63-.87-.23-.76-.23-1.25c0-.96.35-1.72,1.06-2.27s1.67-.83,2.88-.83c.61,0,1.2.06,1.76.17.56.11.98.22,1.26.33l-.44,1.96c-.27-.12-.61-.23-1.02-.33-.41-.1-.89-.15-1.44-.15-.49,0-.89.08-1.2.25-.31.17-.46.42-.46.77,0,.17.03.33.09.46.06.13.16.26.31.37.15.11.34.23.58.34s.53.23.88.35c.57.21,1.06.42,1.46.63s.73.44.99.7.45.56.57.89c.12.33.18.73.18,1.2,0,1-.37,1.76-1.11,2.27-.74.51-1.8.77-3.17.77-.92,0-1.66-.08-2.22-.23-.56-.15-.95-.28-1.18-.37l.42-2.02c.36.15.79.29,1.29.42s1.07.2,1.71.2Z" fill="#36775f"/>
    </g>
  </g>
</svg>