<?xml version="1.0" encoding="UTF-8"?>
<svg id="uuid-3152ec85-22c4-4b71-a158-b97a8fc993a0" data-name="Layer 2" xmlns="http://www.w3.org/2000/svg" width="500" height="200" viewBox="0 0 500 200">
  <g>
    <rect x="28.5" y="12.5" width="443" height="175" rx="21.24" ry="21.24" fill="#fff"/>
    <path d="M450.26,188.5H49.74c-12.26,0-22.24-9.98-22.24-22.24V33.74c0-12.26,9.98-22.24,22.24-22.24h400.52c12.26,0,22.24,9.98,22.24,22.24v132.52c0,12.26-9.98,22.24-22.24,22.24ZM49.74,13.5c-11.16,0-20.24,9.08-20.24,20.24v132.52c0,11.16,9.08,20.24,20.24,20.24h400.52c11.16,0,20.24-9.08,20.24-20.24V33.74c0-11.16-9.08-20.24-20.24-20.24H49.74Z" fill="#caf9e2"/>
  </g>
  <g>
    <path d="M208.09,44.07c.36.66.78,1.48,1.25,2.44.47.97.96,2.02,1.47,3.15.51,1.13,1.02,2.29,1.52,3.46.5,1.18.97,2.29,1.41,3.33.44-1.04.91-2.15,1.41-3.33.5-1.18,1.01-2.33,1.52-3.46.51-1.13,1-2.18,1.47-3.15.47-.97.89-1.78,1.25-2.44h4.26c.2,1.38.38,2.92.55,4.64.17,1.71.32,3.49.45,5.34.13,1.85.25,3.71.36,5.56s.21,3.61.29,5.25h-4.56c-.06-2.02-.14-4.22-.24-6.6-.1-2.38-.25-4.78-.45-7.2-.36.84-.76,1.77-1.2,2.79-.44,1.02-.88,2.04-1.31,3.06-.43,1.02-.85,2-1.25,2.93-.4.93-.74,1.73-1.02,2.38h-3.27c-.28-.66-.62-1.46-1.02-2.38-.4-.93-.82-1.91-1.25-2.93-.43-1.02-.87-2.04-1.31-3.06-.44-1.02-.84-1.95-1.2-2.79-.2,2.42-.35,4.82-.45,7.2-.1,2.38-.18,4.58-.24,6.6h-4.56c.08-1.64.17-3.39.29-5.25.11-1.86.23-3.71.36-5.56.13-1.85.28-3.63.45-5.34.17-1.71.36-3.26.56-4.64h4.47Z"/>
    <path d="M234.85,48.66c1.32,0,2.42.15,3.3.45.88.3,1.58.73,2.12,1.29.53.56.9,1.24,1.12,2.04.22.8.33,1.69.33,2.67v9.3c-.64.14-1.53.31-2.67.5-1.14.19-2.52.29-4.14.29-1.02,0-1.95-.09-2.77-.27-.83-.18-1.55-.48-2.15-.89-.6-.41-1.06-.94-1.38-1.6-.32-.66-.48-1.47-.48-2.43s.19-1.7.56-2.34c.37-.64.86-1.15,1.48-1.53.62-.38,1.33-.65,2.13-.83.8-.17,1.63-.25,2.49-.25.58,0,1.1.03,1.54.08.45.05.82.12,1.1.19v-.42c0-.76-.23-1.37-.69-1.83-.46-.46-1.26-.69-2.4-.69-.76,0-1.51.06-2.25.17-.74.11-1.38.27-1.92.46l-.57-3.6c.26-.08.58-.17.97-.25s.81-.17,1.28-.24c.46-.07.94-.13,1.46-.18.51-.05,1.02-.08,1.54-.08ZM235.21,61.74c.44,0,.86,0,1.26-.03.4-.02.72-.05.96-.09v-3.39c-.18-.04-.45-.08-.81-.12-.36-.04-.69-.06-.99-.06-.42,0-.81.03-1.18.08s-.7.15-.97.28-.5.33-.66.57c-.16.24-.24.54-.24.9,0,.7.23,1.19.71,1.46.47.27,1.11.4,1.93.4Z"/>
    <path d="M245.02,56.97c0-1.14.18-2.21.55-3.23.37-1.01.9-1.89,1.6-2.64s1.55-1.34,2.55-1.79c1-.44,2.14-.66,3.42-.66.84,0,1.61.08,2.31.23s1.38.37,2.04.65l-.93,3.57c-.42-.16-.88-.3-1.38-.42-.5-.12-1.06-.18-1.68-.18-1.32,0-2.3.41-2.96,1.23-.65.82-.97,1.9-.97,3.24,0,1.42.3,2.52.92,3.3.61.78,1.67,1.17,3.2,1.17.54,0,1.12-.05,1.74-.15s1.19-.26,1.71-.48l.63,3.66c-.52.22-1.17.41-1.95.57-.78.16-1.64.24-2.58.24-1.44,0-2.68-.21-3.72-.65-1.04-.43-1.9-1.01-2.57-1.75-.67-.74-1.16-1.61-1.47-2.62-.31-1.01-.46-2.1-.46-3.29Z"/>
    <path d="M280.87,54.45c0,1.78-.27,3.35-.79,4.7-.53,1.35-1.25,2.48-2.17,3.39-.92.91-2.02,1.6-3.29,2.06-1.27.46-2.64.69-4.09.69s-2.76-.23-4.02-.69-2.36-1.14-3.3-2.06c-.94-.91-1.68-2.04-2.22-3.39-.54-1.35-.81-2.92-.81-4.7s.28-3.34.84-4.69c.56-1.35,1.32-2.48,2.27-3.4.95-.92,2.05-1.61,3.3-2.07,1.25-.46,2.57-.69,3.95-.69s2.76.23,4.02.69c1.26.46,2.36,1.15,3.3,2.07s1.68,2.05,2.22,3.4.81,2.92.81,4.69ZM265,54.45c0,1.02.12,1.94.38,2.76.25.82.61,1.53,1.08,2.11.47.59,1.04,1.05,1.72,1.37.68.32,1.46.48,2.34.48s1.63-.16,2.32-.48c.69-.32,1.27-.77,1.74-1.37.47-.59.83-1.29,1.08-2.11.25-.82.38-1.74.38-2.76s-.12-1.94-.38-2.77c-.25-.83-.61-1.54-1.08-2.13-.47-.59-1.05-1.04-1.74-1.37-.69-.32-1.46-.48-2.32-.48s-1.66.17-2.34.5-1.25.79-1.72,1.38c-.47.59-.83,1.3-1.08,2.13s-.38,1.75-.38,2.74Z"/>
    <path d="M290.44,61.29c.66,0,1.21-.06,1.64-.17.43-.11.77-.26,1.04-.45.26-.19.44-.41.54-.67.1-.26.15-.55.15-.87,0-.68-.32-1.25-.96-1.69-.64-.45-1.74-.94-3.3-1.46-.68-.24-1.36-.51-2.04-.83-.68-.31-1.29-.7-1.83-1.17-.54-.47-.98-1.04-1.32-1.71-.34-.67-.51-1.48-.51-2.44s.18-1.83.54-2.6c.36-.77.87-1.42,1.53-1.96s1.46-.96,2.4-1.25c.94-.29,2-.44,3.18-.44,1.4,0,2.61.15,3.63.45,1.02.3,1.86.63,2.52.99l-1.35,3.69c-.58-.3-1.23-.56-1.94-.79-.71-.23-1.56-.34-2.56-.34-1.12,0-1.93.15-2.42.46-.49.31-.74.79-.74,1.42,0,.38.09.7.27.96.18.26.43.5.76.71s.71.4,1.14.57c.43.17.91.34,1.43.52,1.08.4,2.02.79,2.82,1.19.8.39,1.46.85,2,1.36.53.52.92,1.13,1.19,1.83.26.7.39,1.55.39,2.55,0,1.94-.68,3.45-2.04,4.52-1.36,1.07-3.41,1.6-6.15,1.6-.92,0-1.75-.06-2.49-.17-.74-.11-1.4-.25-1.96-.4-.57-.16-1.06-.33-1.47-.51-.41-.18-.75-.35-1.04-.51l1.32-3.72c.62.34,1.38.65,2.29.92s2.03.41,3.34.41Z"/>
  </g>
  <g>
    <path d="M111.79,96v-12.47h7.52v1.49h-5.78v3.76h5.13v1.48h-5.13v5.74h-1.75Z"/>
    <path d="M129.36,91.32c0,.74-.11,1.42-.32,2.02-.22.6-.52,1.12-.91,1.55-.39.43-.86.77-1.4,1-.54.23-1.13.35-1.76.35s-1.22-.12-1.76-.35c-.54-.23-1-.57-1.4-1-.39-.43-.69-.95-.91-1.55-.22-.6-.32-1.27-.32-2.02s.11-1.4.32-2.01c.22-.61.52-1.12.91-1.56.39-.43.85-.76,1.4-1,.54-.23,1.13-.35,1.76-.35s1.22.12,1.76.35c.54.23,1,.57,1.4,1,.39.43.69.95.91,1.56.22.61.32,1.28.32,2.01ZM127.61,91.32c0-1.06-.24-1.89-.71-2.51-.47-.62-1.12-.93-1.94-.93s-1.46.31-1.94.93-.71,1.46-.71,2.51.24,1.89.71,2.51,1.12.93,1.94.93,1.46-.31,1.94-.93c.47-.62.71-1.46.71-2.51Z"/>
    <path d="M135.17,86.44c.14,0,.31,0,.5.03.19.02.37.04.55.07.18.03.34.06.5.09.15.03.26.06.33.08l-.29,1.46c-.13-.05-.35-.1-.66-.17-.31-.07-.7-.1-1.18-.1-.31,0-.62.03-.93.1-.31.07-.51.11-.6.13v7.87h-1.67v-8.96c.4-.14.89-.28,1.48-.41s1.25-.19,1.98-.19Z"/>
    <path d="M142.93,83.53h1.75v12.47h-1.75v-12.47Z"/>
    <path d="M147.66,86.91c.38-.1.89-.2,1.53-.31.64-.11,1.37-.16,2.2-.16.74,0,1.36.11,1.85.31.49.21.88.5,1.18.88.29.38.5.83.62,1.36.12.53.18,1.11.18,1.75v5.26h-1.67v-4.9c0-.58-.04-1.07-.12-1.48-.08-.41-.21-.74-.39-.99-.18-.25-.42-.44-.72-.55-.3-.11-.67-.17-1.12-.17-.18,0-.37,0-.56.02-.19.01-.38.03-.55.04s-.33.04-.47.06c-.14.02-.24.04-.3.05v7.9h-1.67v-9.09Z"/>
    <path d="M159.56,86.64h3.55v1.4h-3.55v4.32c0,.47.04.86.11,1.16.07.31.18.55.32.72s.32.3.54.37c.22.07.47.11.76.11.5,0,.91-.06,1.22-.17.31-.11.52-.19.64-.24l.32,1.39c-.17.08-.46.19-.88.31s-.9.19-1.44.19c-.64,0-1.16-.08-1.57-.24s-.75-.41-1-.73c-.25-.32-.43-.72-.53-1.2-.1-.47-.15-1.02-.15-1.65v-8.35l1.67-.29v2.9Z"/>
    <path d="M164.53,91.34c0-.83.12-1.55.36-2.17.24-.62.56-1.13.95-1.54.4-.41.85-.71,1.37-.92.52-.2,1.04-.31,1.58-.31,1.26,0,2.23.39,2.9,1.18.67.79,1.01,1.98,1.01,3.59v.28c0,.11,0,.22-.02.31h-6.41c.07.97.35,1.71.85,2.21s1.26.76,2.3.76c.59,0,1.08-.05,1.48-.15.4-.1.71-.2.91-.3l.23,1.4c-.2.11-.56.22-1.07.34-.51.12-1.09.18-1.74.18-.82,0-1.52-.12-2.11-.37-.59-.25-1.08-.58-1.47-1.02-.38-.43-.67-.95-.85-1.54-.19-.59-.28-1.24-.28-1.95ZM170.96,90.42c.01-.76-.18-1.38-.57-1.86-.39-.49-.93-.73-1.61-.73-.38,0-.72.08-1.02.23s-.54.34-.75.58-.36.52-.48.83c-.11.31-.19.63-.22.95h4.64Z"/>
    <path d="M177.92,96.18c-1.03-.02-1.76-.25-2.2-.67-.43-.42-.65-1.07-.65-1.96v-11.23l1.67-.29v11.25c0,.28.02.5.07.68.05.18.13.32.23.43.11.11.25.19.43.24.18.05.4.1.67.13l-.23,1.4Z"/>
    <path d="M179.05,89.83h4.45v1.57h-4.45v-1.57Z"/>
    <path d="M187.08,87.05c.2-.13.51-.27.93-.41s.89-.22,1.43-.22c.67,0,1.27.12,1.79.36s.96.58,1.32,1.01.63.95.82,1.55c.19.6.28,1.26.28,1.98,0,.76-.11,1.44-.33,2.04-.22.61-.54,1.12-.95,1.54-.41.42-.9.74-1.48.97-.58.23-1.22.34-1.94.34-.78,0-1.47-.05-2.07-.16-.6-.11-1.09-.22-1.48-.32v-13.41l1.67-.29v5.02ZM187.08,94.54c.17.05.41.09.71.13.31.04.69.06,1.14.06.9,0,1.62-.3,2.16-.89.54-.59.81-1.44.81-2.53,0-.48-.05-.93-.14-1.35s-.25-.78-.47-1.09c-.22-.31-.5-.55-.84-.72-.34-.17-.75-.26-1.23-.26s-.88.08-1.26.23c-.38.16-.68.32-.88.49v5.92Z"/>
    <path d="M199.03,86.41c.67,0,1.24.09,1.7.26.46.17.83.42,1.12.74.28.32.48.7.6,1.13s.18.92.18,1.45v5.85c-.14.02-.35.06-.6.1-.26.04-.55.08-.87.12-.32.04-.67.07-1.05.1s-.75.05-1.12.05c-.53,0-1.01-.05-1.46-.16-.44-.11-.83-.28-1.15-.51-.32-.23-.58-.54-.76-.93-.18-.38-.27-.85-.27-1.39s.1-.96.31-1.33c.21-.37.5-.67.85-.9.36-.23.78-.4,1.26-.5.48-.11.98-.16,1.51-.16.17,0,.34,0,.52.03.18.02.35.04.51.07s.3.06.42.08.2.04.25.05v-.47c0-.28-.03-.55-.09-.82s-.17-.51-.32-.72c-.16-.21-.37-.38-.64-.5s-.62-.19-1.05-.19c-.55,0-1.03.04-1.45.12-.41.08-.72.16-.93.24l-.2-1.39c.22-.1.58-.19,1.08-.28.5-.09,1.05-.14,1.64-.14ZM199.18,94.79c.4,0,.75,0,1.05-.03.31-.02.56-.05.76-.1v-2.79c-.12-.06-.31-.11-.58-.15s-.6-.06-.98-.06c-.25,0-.52.02-.8.05-.28.04-.54.11-.77.23-.23.11-.43.27-.58.47-.16.2-.23.46-.23.78,0,.6.19,1.02.58,1.25.38.23.91.35,1.57.35Z"/>
    <path d="M207.58,94.79c.68,0,1.19-.09,1.52-.27.33-.18.49-.47.49-.86s-.16-.73-.49-.97c-.32-.24-.86-.51-1.6-.81-.36-.14-.71-.29-1.03-.44-.33-.15-.62-.33-.86-.53-.24-.2-.43-.45-.58-.74s-.22-.64-.22-1.06c0-.83.31-1.48.92-1.97.61-.49,1.45-.73,2.5-.73.26,0,.53.02.79.05.26.03.51.07.74.11s.43.09.6.13c.17.05.31.09.4.13l-.31,1.44c-.18-.1-.46-.19-.85-.3-.38-.1-.85-.15-1.39-.15-.47,0-.88.09-1.22.28-.35.19-.52.48-.52.87,0,.2.04.38.12.54.08.16.2.3.36.42.16.13.36.24.6.35.24.11.53.22.86.34.44.17.84.33,1.19.49.35.16.65.35.89.57.25.22.43.48.57.78.13.31.2.68.2,1.12,0,.86-.32,1.52-.96,1.96-.64.44-1.56.67-2.74.67-.83,0-1.48-.07-1.94-.21-.47-.14-.79-.24-.95-.31l.31-1.44c.19.07.5.18.92.32s.98.22,1.67.22Z"/>
    <path d="M212.91,91.34c0-.83.12-1.55.36-2.17.24-.62.56-1.13.95-1.54.4-.41.85-.71,1.37-.92.52-.2,1.04-.31,1.58-.31,1.26,0,2.23.39,2.9,1.18.67.79,1.01,1.98,1.01,3.59v.28c0,.11,0,.22-.02.31h-6.41c.07.97.35,1.71.85,2.21s1.26.76,2.3.76c.59,0,1.08-.05,1.48-.15.4-.1.71-.2.91-.3l.23,1.4c-.2.11-.56.22-1.07.34-.51.12-1.09.18-1.74.18-.82,0-1.52-.12-2.11-.37-.59-.25-1.08-.58-1.47-1.02-.38-.43-.67-.95-.85-1.54-.19-.59-.28-1.24-.28-1.95ZM219.34,90.42c.01-.76-.18-1.38-.57-1.86-.39-.49-.93-.73-1.61-.73-.38,0-.72.08-1.02.23s-.54.34-.75.58-.36.52-.48.83c-.11.31-.19.63-.22.95h4.64Z"/>
    <path d="M229.54,82.32l1.67-.29v13.7c-.38.11-.88.22-1.48.32-.6.11-1.29.16-2.07.16-.72,0-1.37-.11-1.94-.34-.58-.23-1.07-.55-1.48-.97-.41-.42-.72-.93-.94-1.54-.22-.61-.33-1.29-.33-2.04s.09-1.38.28-1.98c.19-.6.46-1.12.82-1.55.36-.43.8-.77,1.32-1.01s1.12-.36,1.79-.36c.54,0,1.02.07,1.43.22s.72.28.93.41v-4.73ZM229.54,88.62c-.2-.17-.5-.33-.88-.49-.38-.16-.8-.23-1.26-.23-.48,0-.89.09-1.23.26-.34.17-.62.41-.84.72-.22.31-.37.67-.47,1.09-.1.42-.14.87-.14,1.35,0,1.09.27,1.94.81,2.53.54.59,1.26.89,2.16.89.46,0,.84-.02,1.14-.06.31-.04.54-.09.71-.13v-5.92Z"/>
    <path d="M243.96,94.27c-.12-.29-.28-.65-.48-1.1-.2-.44-.41-.92-.64-1.44-.23-.52-.47-1.05-.73-1.59-.26-.55-.5-1.06-.73-1.55-.23-.49-.44-.92-.64-1.3-.2-.38-.36-.68-.48-.88-.13,1.42-.24,2.95-.32,4.6-.08,1.65-.16,3.32-.22,5h-1.71c.05-1.08.1-2.17.16-3.27.06-1.1.13-2.18.21-3.24.08-1.06.16-2.1.25-3.1.09-1.01.19-1.96.3-2.86h1.53c.32.53.67,1.15,1.04,1.87.37.72.74,1.47,1.12,2.26.37.79.73,1.57,1.08,2.36.35.79.67,1.5.95,2.15.29-.65.61-1.36.95-2.15s.71-1.57,1.08-2.36c.37-.79.74-1.54,1.12-2.26.37-.72.72-1.34,1.04-1.87h1.53c.41,4.02.71,8.18.92,12.47h-1.71c-.06-1.68-.13-3.34-.22-5-.08-1.65-.19-3.18-.32-4.6-.12.2-.28.5-.48.88-.2.38-.41.82-.64,1.3-.23.49-.47,1-.73,1.55-.26.55-.5,1.08-.73,1.59-.23.52-.44,1-.64,1.44-.2.44-.36.81-.48,1.1h-1.4Z"/>
    <path d="M256.96,86.41c.67,0,1.24.09,1.7.26.46.17.83.42,1.12.74.28.32.48.7.6,1.13.12.44.18.92.18,1.45v5.85c-.14.02-.34.06-.6.1-.26.04-.55.08-.87.12-.32.04-.68.07-1.05.1-.38.03-.75.05-1.12.05-.53,0-1.01-.05-1.46-.16-.44-.11-.83-.28-1.15-.51-.32-.23-.58-.54-.76-.93-.18-.38-.27-.85-.27-1.39s.11-.96.31-1.33c.21-.37.5-.67.86-.9.36-.23.78-.4,1.26-.5.48-.11.98-.16,1.51-.16.17,0,.34,0,.52.03.18.02.35.04.51.07s.3.06.42.08c.12.02.2.04.25.05v-.47c0-.28-.03-.55-.09-.82-.06-.27-.17-.51-.32-.72s-.37-.38-.64-.5c-.27-.13-.62-.19-1.05-.19-.55,0-1.03.04-1.45.12-.41.08-.72.16-.93.24l-.2-1.39c.21-.1.58-.19,1.08-.28.5-.09,1.05-.14,1.64-.14ZM257.1,94.79c.4,0,.75,0,1.05-.03.31-.02.56-.05.77-.1v-2.79c-.12-.06-.32-.11-.59-.15-.27-.04-.6-.06-.98-.06-.25,0-.52.02-.8.05-.28.04-.54.11-.77.23-.23.11-.43.27-.59.47-.16.2-.23.46-.23.78,0,.6.19,1.02.58,1.25.38.23.91.35,1.57.35Z"/>
    <path d="M267.4,96.22c-.76,0-1.42-.12-1.99-.36s-1.05-.58-1.44-1.01c-.39-.43-.68-.95-.87-1.54-.19-.59-.29-1.25-.29-1.97s.1-1.38.32-1.98c.21-.6.51-1.12.89-1.56.38-.44.86-.78,1.41-1.03.56-.25,1.18-.37,1.86-.37.42,0,.84.04,1.26.11.42.07.82.19,1.21.34l-.38,1.42c-.25-.12-.54-.22-.87-.29-.33-.07-.68-.11-1.05-.11-.94,0-1.65.29-2.15.88s-.75,1.45-.75,2.57c0,.5.06.97.17,1.39.11.42.29.78.54,1.08.25.3.56.53.94.69.38.16.85.24,1.4.24.44,0,.85-.04,1.21-.13.36-.08.64-.17.85-.27l.23,1.4c-.1.06-.23.12-.41.17-.18.05-.38.1-.61.14-.23.04-.47.08-.73.11s-.51.04-.75.04Z"/>
    <path d="M273.88,94.79c.68,0,1.19-.09,1.52-.27.33-.18.49-.47.49-.86s-.16-.73-.49-.97c-.32-.24-.86-.51-1.6-.81-.36-.14-.71-.29-1.03-.44-.33-.15-.62-.33-.86-.53-.24-.2-.43-.45-.58-.74-.14-.29-.22-.64-.22-1.06,0-.83.31-1.48.92-1.97.61-.49,1.45-.73,2.5-.73.26,0,.53.02.79.05.26.03.51.07.74.11s.43.09.6.13c.17.05.31.09.41.13l-.31,1.44c-.18-.1-.46-.19-.85-.3-.38-.1-.85-.15-1.39-.15-.47,0-.88.09-1.22.28-.35.19-.52.48-.52.87,0,.2.04.38.12.54.08.16.2.3.36.42.16.13.36.24.6.35s.53.22.86.34c.44.17.84.33,1.19.49.35.16.64.35.89.57.25.22.43.48.57.78.13.31.2.68.2,1.12,0,.86-.32,1.52-.96,1.96-.64.44-1.56.67-2.75.67-.83,0-1.48-.07-1.94-.21-.47-.14-.79-.24-.95-.31l.31-1.44c.19.07.5.18.92.32s.98.22,1.67.22Z"/>
    <path d="M281.71,95.03c0,.32-.11.61-.32.85s-.51.36-.88.36-.67-.12-.88-.36c-.21-.24-.32-.52-.32-.85s.11-.61.32-.85c.22-.24.51-.36.88-.36s.67.12.88.36.32.52.32.85Z"/>
    <path d="M290.2,82.32l1.67-.29v13.7c-.38.11-.88.22-1.48.32-.6.11-1.29.16-2.07.16-.72,0-1.37-.11-1.95-.34-.58-.23-1.07-.55-1.48-.97-.41-.42-.72-.93-.94-1.54-.22-.61-.33-1.29-.33-2.04s.09-1.38.28-1.98c.19-.6.46-1.12.82-1.55s.8-.77,1.32-1.01c.52-.24,1.12-.36,1.79-.36.54,0,1.02.07,1.43.22s.72.28.93.41v-4.73ZM290.2,88.62c-.2-.17-.5-.33-.88-.49-.38-.16-.8-.23-1.26-.23-.48,0-.89.09-1.23.26s-.62.41-.84.72c-.22.31-.37.67-.47,1.09s-.14.87-.14,1.35c0,1.09.27,1.94.81,2.53.54.59,1.26.89,2.16.89.46,0,.84-.02,1.14-.06.31-.04.54-.09.71-.13v-5.92Z"/>
    <path d="M294.76,86.91c.38-.1.89-.2,1.52-.31.63-.11,1.36-.16,2.19-.16.6,0,1.1.08,1.51.24s.75.4,1.03.71c.08-.06.22-.14.4-.25.18-.11.4-.21.67-.31s.56-.19.88-.27.67-.12,1.04-.12c.72,0,1.31.11,1.76.31.46.21.81.51,1.07.89.26.38.43.84.52,1.37s.13,1.1.13,1.73v5.26h-1.67v-4.9c0-.55-.03-1.03-.08-1.42-.05-.4-.16-.73-.31-.99-.15-.26-.35-.46-.61-.58-.26-.13-.59-.19-1-.19-.56,0-1.03.08-1.39.23-.37.15-.62.29-.75.4.1.31.17.65.22,1.03s.07.76.07,1.17v5.26h-1.67v-4.9c0-.55-.03-1.03-.09-1.42-.06-.4-.17-.73-.32-.99-.15-.26-.35-.46-.61-.58s-.58-.19-.98-.19c-.17,0-.35,0-.54.02-.19.01-.38.03-.55.04s-.33.04-.48.06c-.14.02-.24.04-.29.05v7.9h-1.67v-9.09Z"/>
    <path d="M316.12,95.06c-.14.1-.42.22-.84.37-.41.15-.9.23-1.45.23s-1.09-.09-1.59-.27c-.5-.18-.93-.46-1.3-.84-.37-.38-.67-.85-.88-1.41-.22-.56-.32-1.24-.32-2.02,0-.68.1-1.31.31-1.88.2-.57.5-1.06.89-1.48.39-.41.87-.74,1.43-.97.56-.23,1.2-.35,1.91-.35.78,0,1.46.06,2.04.17.58.11,1.07.22,1.47.32v8.35c0,1.44-.37,2.48-1.12,3.13-.74.65-1.87.97-3.38.97-.59,0-1.14-.05-1.67-.14-.52-.1-.97-.21-1.36-.34l.31-1.46c.34.13.75.25,1.23.35.49.1.99.15,1.52.15,1,0,1.71-.2,2.15-.59s.66-1.03.66-1.89v-.4ZM316.11,88.12c-.17-.05-.39-.09-.68-.14-.28-.04-.66-.06-1.14-.06-.9,0-1.59.29-2.08.88-.49.59-.73,1.37-.73,2.34,0,.54.07,1,.21,1.39.14.38.32.7.56.95s.5.44.81.56.62.18.95.18c.44,0,.85-.06,1.22-.19.37-.13.67-.27.88-.44v-5.47Z"/>
    <path d="M325.64,84.95c-.3,0-.55-.1-.77-.3-.21-.2-.31-.46-.31-.8s.11-.6.31-.8c.21-.2.46-.3.77-.3s.55.1.77.3c.21.2.31.47.31.8s-.11.6-.31.8c-.21.2-.47.3-.77.3ZM326.49,96h-1.67v-9.36h1.67v9.36Z"/>
    <path d="M329.37,86.91c.38-.1.89-.2,1.53-.31.64-.11,1.37-.16,2.2-.16.74,0,1.36.11,1.85.31.49.21.88.5,1.18.88s.5.83.62,1.36c.12.53.18,1.11.18,1.75v5.26h-1.67v-4.9c0-.58-.04-1.07-.12-1.48-.08-.41-.21-.74-.39-.99s-.42-.44-.72-.55c-.3-.11-.67-.17-1.12-.17-.18,0-.37,0-.56.02-.19.01-.38.03-.55.04s-.33.04-.47.06c-.14.02-.24.04-.3.05v7.9h-1.67v-9.09Z"/>
    <path d="M341.88,94.79c.68,0,1.19-.09,1.52-.27.33-.18.5-.47.5-.86s-.16-.73-.49-.97c-.32-.24-.86-.51-1.6-.81-.36-.14-.71-.29-1.04-.44-.33-.15-.62-.33-.86-.53-.24-.2-.43-.45-.58-.74-.14-.29-.22-.64-.22-1.06,0-.83.31-1.48.92-1.97.61-.49,1.45-.73,2.5-.73.26,0,.53.02.79.05s.51.07.74.11.43.09.6.13c.17.05.31.09.4.13l-.31,1.44c-.18-.1-.46-.19-.85-.3-.38-.1-.85-.15-1.38-.15-.47,0-.88.09-1.22.28-.35.19-.52.48-.52.87,0,.2.04.38.12.54.08.16.2.3.36.42s.36.24.6.35c.24.11.53.22.86.34.44.17.84.33,1.19.49.35.16.65.35.89.57.25.22.43.48.57.78.13.31.2.68.2,1.12,0,.86-.32,1.52-.96,1.96-.64.44-1.56.67-2.74.67-.83,0-1.48-.07-1.95-.21-.47-.14-.79-.24-.95-.31l.31-1.44c.19.07.5.18.92.32s.98.22,1.67.22Z"/>
    <path d="M349.3,86.64h3.55v1.4h-3.55v4.32c0,.47.04.86.11,1.16.07.31.18.55.32.72.14.17.32.3.54.37.22.07.47.11.76.11.5,0,.91-.06,1.22-.17.31-.11.52-.19.64-.24l.32,1.39c-.17.08-.46.19-.88.31s-.9.19-1.44.19c-.64,0-1.16-.08-1.58-.24s-.75-.41-1-.73c-.25-.32-.43-.72-.53-1.2-.1-.47-.15-1.02-.15-1.65v-8.35l1.67-.29v2.9Z"/>
    <path d="M357.99,86.41c.67,0,1.24.09,1.7.26.46.17.83.42,1.12.74.28.32.48.7.6,1.13.12.44.18.92.18,1.45v5.85c-.14.02-.35.06-.6.1s-.55.08-.87.12c-.32.04-.67.07-1.05.1-.38.03-.75.05-1.12.05-.53,0-1.01-.05-1.46-.16-.45-.11-.83-.28-1.15-.51s-.58-.54-.76-.93c-.18-.38-.27-.85-.27-1.39s.1-.96.32-1.33c.21-.37.49-.67.85-.9s.78-.4,1.26-.5c.48-.11.98-.16,1.51-.16.17,0,.34,0,.52.03s.35.04.51.07.3.06.42.08c.12.02.21.04.25.05v-.47c0-.28-.03-.55-.09-.82-.06-.27-.17-.51-.32-.72-.16-.21-.37-.38-.64-.5-.27-.13-.62-.19-1.05-.19-.55,0-1.04.04-1.45.12-.41.08-.72.16-.93.24l-.2-1.39c.22-.1.58-.19,1.08-.28s1.05-.14,1.64-.14ZM358.13,94.79c.4,0,.75,0,1.05-.03.3-.02.56-.05.76-.1v-2.79c-.12-.06-.31-.11-.58-.15-.27-.04-.6-.06-.98-.06-.25,0-.52.02-.8.05-.28.04-.54.11-.77.23-.23.11-.43.27-.58.47-.16.2-.23.46-.23.78,0,.6.19,1.02.58,1.25.38.23.91.35,1.57.35Z"/>
    <path d="M367.17,96.18c-1.03-.02-1.76-.25-2.2-.67-.43-.42-.65-1.07-.65-1.96v-11.23l1.67-.29v11.25c0,.28.02.5.07.68.05.18.12.32.23.43s.25.19.43.24c.18.05.4.1.67.13l-.23,1.4Z"/>
    <path d="M372.08,96.18c-1.03-.02-1.76-.25-2.2-.67-.43-.42-.65-1.07-.65-1.96v-11.23l1.67-.29v11.25c0,.28.02.5.07.68.05.18.13.32.23.43.11.11.25.19.43.24.18.05.4.1.67.13l-.23,1.4Z"/>
    <path d="M373.67,91.34c0-.83.12-1.55.36-2.17.24-.62.56-1.13.95-1.54.4-.41.85-.71,1.37-.92.52-.2,1.04-.31,1.58-.31,1.26,0,2.23.39,2.9,1.18.67.79,1.01,1.98,1.01,3.59v.28c0,.11,0,.22-.02.31h-6.41c.07.97.35,1.71.85,2.21s1.26.76,2.3.76c.59,0,1.08-.05,1.49-.15.4-.1.71-.2.91-.3l.23,1.4c-.2.11-.56.22-1.07.34-.51.12-1.09.18-1.74.18-.82,0-1.52-.12-2.11-.37-.59-.25-1.08-.58-1.47-1.02-.38-.43-.67-.95-.85-1.54-.19-.59-.28-1.24-.28-1.95ZM380.09,90.42c.01-.76-.18-1.38-.57-1.86-.39-.49-.93-.73-1.61-.73-.38,0-.72.08-1.02.23s-.54.34-.75.58-.36.52-.48.83c-.11.31-.19.63-.22.95h4.64Z"/>
    <path d="M387.71,86.44c.14,0,.31,0,.49.03.19.02.37.04.55.07.18.03.34.06.49.09.15.03.26.06.33.08l-.29,1.46c-.13-.05-.35-.1-.66-.17-.31-.07-.7-.1-1.18-.1-.31,0-.62.03-.93.1-.31.07-.51.11-.6.13v7.87h-1.67v-8.96c.4-.14.89-.28,1.48-.41s1.25-.19,1.98-.19Z"/>
  </g>
  <g>
    <g>
      <rect x="146.5" y="122.79" width="207" height="39" rx="7.84" ry="7.84" fill="#caf9e2"/>
      <path d="M345.66,162.29h-191.32c-4.6,0-8.34-3.74-8.34-8.34v-23.32c0-4.6,3.74-8.34,8.34-8.34h191.32c4.6,0,8.34,3.74,8.34,8.34v23.32c0,4.6-3.74,8.34-8.34,8.34ZM154.34,123.29c-4.05,0-7.34,3.29-7.34,7.34v23.32c0,4.05,3.29,7.34,7.34,7.34h191.32c4.05,0,7.34-3.29,7.34-7.34v-23.32c0-4.05-3.29-7.34-7.34-7.34h-191.32Z" fill="#36775f"/>
    </g>
    <g>
      <path d="M178.92,141.77c0,1.2-.19,2.24-.56,3.13-.37.89-.9,1.63-1.59,2.22-.69.59-1.51,1.03-2.48,1.32-.97.29-2.04.43-3.21.43-.56,0-1.19-.02-1.9-.07-.71-.05-1.38-.14-2.02-.29v-13.46c.64-.15,1.32-.24,2.04-.28.72-.04,1.36-.06,1.92-.06,1.16,0,2.22.14,3.18.41s1.78.7,2.47,1.28c.69.58,1.22,1.31,1.59,2.2.37.89.56,1.94.56,3.17ZM169.68,146.63c.15.01.34.02.58.03.24,0,.57,0,.98,0,1.69,0,2.96-.43,3.79-1.29.83-.86,1.25-2.06,1.25-3.61s-.41-2.78-1.22-3.62c-.81-.84-2.07-1.26-3.78-1.26-.75,0-1.28.02-1.6.06v9.68Z" fill="#36775f"/>
      <path d="M191.02,143.47c0,.83-.12,1.58-.36,2.26-.24.68-.58,1.26-1.02,1.74-.44.48-.97.85-1.59,1.12-.62.27-1.3.4-2.05.4s-1.43-.13-2.04-.4c-.61-.27-1.14-.64-1.58-1.12-.44-.48-.78-1.06-1.03-1.74-.25-.68-.37-1.43-.37-2.26s.12-1.58.37-2.25c.25-.67.59-1.25,1.04-1.73.45-.48.98-.85,1.59-1.11.61-.26,1.29-.39,2.02-.39s1.41.13,2.03.39c.62.26,1.15.63,1.59,1.11s.78,1.06,1.03,1.73c.25.67.37,1.42.37,2.25ZM188.54,143.47c0-1.04-.22-1.86-.67-2.47-.45-.61-1.07-.91-1.87-.91s-1.42.3-1.87.91c-.45.61-.67,1.43-.67,2.47s.22,1.89.67,2.5c.45.61,1.07.92,1.87.92s1.42-.31,1.87-.92c.45-.61.67-1.45.67-2.5Z" fill="#36775f"/>
      <path d="M199.55,142.13c-.31,1.17-.64,2.32-.99,3.43-.35,1.11-.7,2.16-1.05,3.15h-1.99c-.27-.61-.55-1.31-.84-2.1-.29-.79-.59-1.63-.88-2.52-.29-.89-.59-1.83-.88-2.82-.29-.99-.58-1.99-.86-3.02h2.56c.12.56.26,1.16.42,1.81.16.65.33,1.31.5,1.98.17.67.36,1.33.54,1.97.19.64.38,1.23.56,1.76.2-.61.4-1.25.59-1.9.19-.65.38-1.31.55-1.96.17-.65.34-1.29.49-1.91.15-.62.29-1.2.41-1.75h1.86c.12.55.25,1.13.4,1.75.15.62.3,1.26.47,1.91.17.65.35,1.31.54,1.96.19.65.39,1.29.59,1.9.17-.53.35-1.12.54-1.76.19-.64.37-1.3.55-1.97.18-.67.35-1.33.51-1.98.16-.65.3-1.25.42-1.81h2.5c-.28,1.03-.57,2.03-.86,3.02-.29.99-.59,1.93-.88,2.82-.29.89-.59,1.73-.88,2.52-.29.79-.58,1.49-.86,2.1h-1.97c-.35-.99-.7-2.04-1.07-3.15s-.7-2.26-1.01-3.43Z" fill="#36775f"/>
      <path d="M208.9,138.59c.47-.13,1.07-.26,1.82-.38.75-.12,1.57-.18,2.48-.18.85,0,1.57.12,2.14.35.57.23,1.03.56,1.37.98.34.42.58.93.72,1.52.14.59.21,1.24.21,1.95v5.88h-2.42v-5.5c0-.56-.04-1.04-.11-1.43-.07-.39-.19-.71-.36-.96-.17-.25-.39-.43-.68-.54s-.64-.17-1.05-.17c-.31,0-.63.02-.96.06-.33.04-.58.07-.74.1v8.44h-2.42v-10.12Z" fill="#36775f"/>
      <path d="M224.24,148.91c-.72-.01-1.32-.09-1.79-.24-.47-.15-.85-.36-1.13-.63-.28-.27-.48-.61-.59-1.02s-.17-.87-.17-1.39v-12.04l2.42-.4v11.98c0,.29.02.54.07.74.05.2.13.37.25.51.12.14.28.25.49.32.21.07.47.13.79.17l-.34,2Z" fill="#36775f"/>
      <path d="M236,143.47c0,.83-.12,1.58-.36,2.26-.24.68-.58,1.26-1.02,1.74-.44.48-.97.85-1.59,1.12-.62.27-1.3.4-2.05.4s-1.43-.13-2.04-.4c-.61-.27-1.14-.64-1.58-1.12-.44-.48-.78-1.06-1.03-1.74-.25-.68-.37-1.43-.37-2.26s.12-1.58.37-2.25c.25-.67.59-1.25,1.04-1.73.45-.48.98-.85,1.59-1.11.61-.26,1.29-.39,2.02-.39s1.41.13,2.03.39c.62.26,1.15.63,1.59,1.11s.78,1.06,1.03,1.73c.25.67.37,1.42.37,2.25ZM233.52,143.47c0-1.04-.22-1.86-.67-2.47-.45-.61-1.07-.91-1.87-.91s-1.42.3-1.87.91c-.45.61-.67,1.43-.67,2.47s.22,1.89.67,2.5c.45.61,1.07.92,1.87.92s1.42-.31,1.87-.92c.45-.61.67-1.45.67-2.5Z" fill="#36775f"/>
      <path d="M241.98,137.99c.8,0,1.47.1,2.02.3.55.2.98.48,1.31.84.33.36.56.8.7,1.31.14.51.21,1.08.21,1.69v6.34c-.37.08-.94.18-1.69.29s-1.6.17-2.55.17c-.63,0-1.2-.06-1.72-.18-.52-.12-.96-.31-1.33-.58-.37-.27-.65-.61-.86-1.04-.21-.43-.31-.95-.31-1.58s.12-1.11.35-1.52c.23-.41.55-.75.95-1.01s.86-.45,1.39-.56c.53-.11,1.08-.17,1.65-.17.27,0,.55.02.84.05.29.03.61.09.94.17v-.4c0-.28-.03-.55-.1-.8s-.18-.48-.35-.67c-.17-.19-.39-.34-.66-.45-.27-.11-.62-.16-1.03-.16-.56,0-1.07.04-1.54.12-.47.08-.85.17-1.14.28l-.3-1.96c.31-.11.75-.21,1.34-.32.59-.11,1.21-.16,1.88-.16ZM242.18,147.01c.75,0,1.31-.04,1.7-.12v-2.68c-.13-.04-.33-.08-.58-.12-.25-.04-.53-.06-.84-.06-.27,0-.54.02-.81.06-.27.04-.52.11-.74.22-.22.11-.4.26-.53.45s-.2.44-.2.73c0,.57.18.97.54,1.19.36.22.85.33,1.46.33Z" fill="#36775f"/>
      <path d="M258.02,148.39c-.48.15-1.08.28-1.81.4-.73.12-1.49.18-2.29.18s-1.57-.13-2.22-.38c-.65-.25-1.21-.62-1.67-1.09-.46-.47-.81-1.05-1.06-1.72-.25-.67-.37-1.43-.37-2.27s.1-1.58.31-2.25c.21-.67.51-1.25.91-1.73.4-.48.89-.85,1.46-1.11.57-.26,1.23-.39,1.98-.39.51,0,.95.06,1.34.18.39.12.72.25,1,.4v-5.02l2.42-.4v15.2ZM251.08,143.45c0,1.07.25,1.9.76,2.51.51.61,1.21.91,2.1.91.39,0,.72-.02.99-.05.27-.03.5-.07.67-.11v-6c-.21-.15-.5-.28-.85-.41-.35-.13-.73-.19-1.13-.19-.88,0-1.52.3-1.93.9s-.61,1.41-.61,2.44Z" fill="#36775f"/>
      <path d="M270.02,133.19c.56,0,1.05.05,1.48.15.43.1.75.19.96.27l-.46,2c-.23-.11-.49-.19-.79-.26-.3-.07-.62-.1-.97-.1-.39,0-.71.06-.98.17-.27.11-.48.27-.64.47-.16.2-.27.44-.34.73-.07.29-.1.6-.1.93v.7h3.8v2.02h-3.8v8.44h-2.42v-11.2c0-1.35.35-2.4,1.06-3.17.71-.77,1.77-1.15,3.2-1.15Z" fill="#36775f"/>
      <path d="M283.02,143.47c0,.83-.12,1.58-.36,2.26s-.58,1.26-1.02,1.74c-.44.48-.97.85-1.59,1.12-.62.27-1.3.4-2.05.4s-1.43-.13-2.04-.4c-.61-.27-1.14-.64-1.58-1.12-.44-.48-.78-1.06-1.03-1.74-.25-.68-.37-1.43-.37-2.26s.12-1.58.37-2.25c.25-.67.59-1.25,1.04-1.73.45-.48.98-.85,1.59-1.11.61-.26,1.29-.39,2.02-.39s1.41.13,2.03.39c.62.26,1.15.63,1.59,1.11s.78,1.06,1.03,1.73c.25.67.37,1.42.37,2.25ZM280.54,143.47c0-1.04-.22-1.86-.67-2.47-.45-.61-1.07-.91-1.87-.91s-1.42.3-1.87.91c-.45.61-.67,1.43-.67,2.47s.22,1.89.67,2.5c.45.61,1.07.92,1.87.92s1.42-.31,1.87-.92c.45-.61.67-1.45.67-2.5Z" fill="#36775f"/>
      <path d="M291.48,140.43c-.2-.07-.48-.14-.83-.21-.35-.07-.76-.11-1.23-.11-.27,0-.55.03-.85.08-.3.05-.51.1-.63.14v8.38h-2.42v-9.96c.47-.17,1.05-.34,1.75-.49.7-.15,1.48-.23,2.33-.23.16,0,.35,0,.56.03s.43.05.64.08.42.07.62.12c.2.05.36.09.48.13l-.42,2.04Z" fill="#36775f"/>
      <path d="M301.39,134.85c.29.51.62,1.13.98,1.86.36.73.73,1.5,1.1,2.31.37.81.74,1.63,1.11,2.46.37.83.7,1.6,1.01,2.31.31-.71.64-1.48,1-2.31.36-.83.73-1.65,1.1-2.46s.74-1.58,1.1-2.31c.36-.73.69-1.35.98-1.86h2.27c.12,1.01.24,2.09.35,3.23.11,1.14.21,2.31.29,3.5s.17,2.39.24,3.6.14,2.38.19,3.53h-2.48c-.05-1.61-.12-3.27-.19-4.98-.07-1.71-.19-3.36-.34-4.96-.15.31-.32.67-.52,1.1-.2.43-.41.89-.64,1.39s-.46,1.02-.69,1.55c-.23.53-.46,1.05-.68,1.55-.22.5-.42.97-.61,1.4s-.35.8-.48,1.11h-1.88c-.13-.31-.29-.68-.48-1.12-.19-.44-.39-.91-.61-1.41-.22-.5-.45-1.02-.68-1.55-.23-.53-.46-1.05-.69-1.54-.23-.49-.44-.96-.64-1.39-.2-.43-.37-.8-.52-1.09-.15,1.6-.26,3.25-.34,4.96-.08,1.71-.14,3.37-.19,4.98h-2.48c.05-1.15.12-2.33.19-3.56.07-1.23.16-2.44.24-3.65s.19-2.38.29-3.51c.11-1.13.22-2.18.35-3.14h2.33Z" fill="#36775f"/>
      <path d="M319.4,137.99c.8,0,1.47.1,2.02.3.55.2.98.48,1.31.84.33.36.56.8.7,1.31.14.51.21,1.08.21,1.69v6.34c-.37.08-.94.18-1.69.29s-1.6.17-2.55.17c-.63,0-1.2-.06-1.72-.18-.52-.12-.96-.31-1.33-.58-.37-.27-.65-.61-.86-1.04-.21-.43-.31-.95-.31-1.58s.12-1.11.35-1.52c.23-.41.55-.75.95-1.01s.86-.45,1.39-.56,1.08-.17,1.65-.17c.27,0,.55.02.84.05s.61.09.94.17v-.4c0-.28-.03-.55-.1-.8s-.18-.48-.35-.67c-.17-.19-.39-.34-.66-.45-.27-.11-.62-.16-1.03-.16-.56,0-1.07.04-1.54.12s-.85.17-1.14.28l-.3-1.96c.31-.11.75-.21,1.34-.32.59-.11,1.21-.16,1.88-.16ZM319.6,147.01c.75,0,1.31-.04,1.7-.12v-2.68c-.13-.04-.33-.08-.58-.12-.25-.04-.53-.06-.84-.06-.27,0-.54.02-.81.06-.27.04-.52.11-.74.22-.22.11-.4.26-.53.45-.13.19-.2.44-.2.73,0,.57.18.97.54,1.19.36.22.85.33,1.46.33Z" fill="#36775f"/>
      <path d="M326.02,143.49c0-.77.12-1.5.36-2.17.24-.67.58-1.26,1.03-1.75.45-.49.99-.88,1.63-1.16.64-.28,1.36-.42,2.16-.42.99,0,1.92.18,2.8.54l-.52,1.98c-.28-.12-.6-.22-.95-.3s-.73-.12-1.13-.12c-.95,0-1.67.3-2.16.89-.49.59-.74,1.43-.74,2.51s.23,1.86.7,2.47c.47.61,1.25.91,2.36.91.41,0,.82-.04,1.22-.12s.75-.18,1.04-.3l.34,2c-.27.13-.67.25-1.21.36-.54.11-1.1.16-1.67.16-.89,0-1.67-.14-2.33-.41-.66-.27-1.21-.65-1.64-1.14-.43-.49-.76-1.07-.97-1.74-.21-.67-.32-1.4-.32-2.19Z" fill="#36775f"/>
    </g>
  </g>
</svg>