<?xml version="1.0" encoding="UTF-8"?>
<svg xmlns="http://www.w3.org/2000/svg" width="1024" height="1024" viewBox="0 0 1024 1024">
  <g id="uuid-3a72760b-1761-4099-be47-8a2b5e6f0cbe" data-name="Layer 1">
    <rect width="1024" height="1024" fill="#fff"/>
  </g>
  <g id="uuid-988e77e9-956b-47ad-a124-46cb53defbb8" data-name="Layer 2">
    <g>
      <path d="M877,379.55v284.22h-125.13v-291.83c0-43.92-39.75-79.6-88.71-79.6s-88.6,35.68-88.6,79.6v291.83h-125.13v-291.83c0-43.92-39.75-79.6-88.6-79.6s-88.71,35.68-88.71,79.6v291.83h-125.13v-284.22c0-81.96,51.32-152.56,125.13-184.48,25.6-11.03,53.78-17.46,83.46-18.11h5.25c31.5,0,61.6,6.54,88.6,18.11,23.46,10.28,44.67,24.32,62.57,41.46,18-17.14,39.1-31.28,62.57-41.46,27.1-11.68,57.1-18.11,88.6-18.11h5.25c29.68.64,57.96,6.96,83.46,18.11,73.81,31.93,125.13,102.53,125.13,184.48Z" fill="#ffbe98"/>
      <g>
        <path d="M205.14,844.66c-5.59-9.9-11.1-20.17-16.53-30.82-5.43-10.65-10.6-21.18-15.48-31.6-4.89-10.42-9.38-20.4-13.48-29.93-4.1-9.53-7.64-18.03-10.62-25.52h34.83c2.63,6.82,5.55,14.17,8.76,22.04,3.21,7.87,6.49,15.71,9.83,23.52,3.33,7.82,6.53,15.3,9.59,22.46,3.06,7.16,5.98,13.34,8.78,18.55,2.64-5.17,5.52-11.34,8.64-18.5,3.13-7.16,6.36-14.64,9.69-22.46,3.33-7.81,6.61-15.66,9.82-23.52,3.21-7.87,6.14-15.23,8.78-22.09h33.63c-3.14,7.52-6.76,16.03-10.85,25.54-4.09,9.51-8.57,19.48-13.42,29.91-4.86,10.43-9.99,20.98-15.38,31.64-5.4,10.66-10.88,20.92-16.44,30.77h-30.13Z" fill="#ffbe98"/>
        <path d="M309.39,726.79h31.59v117.87h-31.59v-117.87Z" fill="#ffbe98"/>
        <path d="M411.64,824.42c4.45,0,8.13-.31,11.03-.94,2.9-.62,5.23-1.47,6.99-2.55,1.75-1.08,2.97-2.35,3.64-3.83.67-1.47,1.01-3.12,1.01-4.93,0-3.85-2.16-7.06-6.48-9.61-4.32-2.55-11.74-5.3-22.27-8.25-4.59-1.36-9.18-2.92-13.77-4.68-4.59-1.76-8.71-3.97-12.35-6.63-3.64-2.66-6.62-5.9-8.91-9.69-2.3-3.8-3.44-8.42-3.44-13.86s1.22-10.35,3.64-14.71c2.43-4.36,5.87-8.08,10.33-11.14,4.46-3.06,9.85-5.41,16.2-7.06,6.34-1.64,13.5-2.47,21.46-2.47,9.45,0,17.62.85,24.5,2.55,6.88,1.7,12.55,3.57,17.01,5.61l-9.11,20.92c-3.92-1.7-8.27-3.2-13.06-4.51-4.79-1.3-10.56-1.96-17.31-1.96-7.56,0-12.99.88-16.3,2.64-3.31,1.76-4.96,4.45-4.96,8.08,0,2.16.61,3.97,1.82,5.44,1.21,1.48,2.94,2.81,5.16,4,2.23,1.19,4.79,2.27,7.69,3.23,2.9.96,6.11,1.96,9.62,2.98,7.29,2.27,13.63,4.51,19.03,6.72,5.4,2.21,9.89,4.79,13.46,7.74,3.58,2.95,6.24,6.41,8,10.37,1.75,3.97,2.63,8.79,2.63,14.46,0,11-4.59,19.53-13.77,25.6-9.18,6.07-23.02,9.1-41.51,9.1-6.21,0-11.81-.31-16.81-.94-5-.62-9.41-1.39-13.26-2.3-3.85-.91-7.16-1.87-9.92-2.89-2.77-1.02-5.1-1.98-6.99-2.89l8.91-21.09c4.18,1.93,9.35,3.66,15.49,5.19,6.14,1.53,13.67,2.3,22.58,2.3Z" fill="#ffbe98"/>
        <path d="M546.08,847.04c-9.86,0-18.36-1.16-25.51-3.49-7.16-2.32-13.06-5.55-17.72-9.69-4.66-4.14-8.1-9.07-10.33-14.8-2.23-5.72-3.34-12.05-3.34-18.96v-73.31h31.59v71.1c0,4.76.64,8.82,1.92,12.16,1.28,3.35,3.04,6.07,5.26,8.16,2.23,2.1,4.93,3.6,8.1,4.51,3.17.91,6.65,1.36,10.43,1.36,7.69,0,13.94-1.98,18.73-5.95,4.79-3.97,7.19-10.71,7.19-20.24v-71.1h31.59v73.31c0,6.92-1.15,13.27-3.44,19.05-2.3,5.78-5.8,10.74-10.53,14.88-4.73,4.14-10.73,7.34-18.02,9.61-7.29,2.27-15.93,3.4-25.92,3.4Z" fill="#ffbe98"/>
        <path d="M724.45,844.66c-1.56-4.1-3.24-8.3-5.04-12.62s-3.59-8.62-5.37-12.89h-54.8c-1.77,4.3-3.55,8.61-5.33,12.93-1.78,4.32-3.44,8.52-4.97,12.58h-32.8c5.28-12.7,10.29-24.43,15.03-35.21,4.74-10.77,9.37-20.92,13.91-30.45,4.54-9.52,9-18.57,13.41-27.13,4.4-8.56,8.97-16.92,13.71-25.09h29.94c4.61,8.16,9.15,16.53,13.63,25.09,4.47,8.56,8.98,17.6,13.53,27.13,4.54,9.52,9.19,19.67,13.93,30.45,4.75,10.77,9.76,22.51,15.05,35.21h-33.83ZM686.5,753.5c-.71,1.71-1.74,4.04-3.09,6.99-1.36,2.95-2.9,6.35-4.63,10.21-1.73,3.86-3.67,8.11-5.82,12.76s-4.32,9.51-6.53,14.61h40.13c-2.15-5.11-4.23-10-6.24-14.65-2.01-4.66-3.93-8.92-5.74-12.78-1.81-3.86-3.4-7.26-4.77-10.21-1.37-2.94-2.47-5.25-3.31-6.92Z" fill="#ffbe98"/>
        <path d="M870.05,821.87v22.79h-93.75v-117.87h31.59v95.08h62.16Z" fill="#ffbe98"/>
      </g>
    </g>
  </g>
</svg>